<?xml version="1.0" encoding="UTF-8"?>
<!DOCTYPE svg  PUBLIC '-//W3C//DTD SVG 1.1//EN'  'http://www.w3.org/Graphics/SVG/1.1/DTD/svg11.dtd'>
<svg version="1.1" xmlns="http://www.w3.org/2000/svg">
<defs>
<font id="GTEestiProDisplay-Regular" horiz-adv-x="600">
<font-face font-family="GT Eesti Pro Display" font-weight="400" ascent="750" bbox="-57 -215 1027 886" cap-height="700" descent="-250" panose-1="0 0 5 0 0 0 0 0 0 0" underline-position="-100" underline-thickness="50" unicode-range="U+0020-0527" units-per-em="1000" x-height="462"/>
<missing-glyph/>
<glyph glyph-name="space" horiz-adv-x="290" unicode=" "/>
<glyph d="M126 212l-24 488h115l-24 -488h-67zM219 119v-119h-119v119h119z" glyph-name="exclam" horiz-adv-x="319" unicode="!"/>
<glyph d="M73 462l-23 253h83l-23 -253h-37zM182 462l-23 253h83l-23 -253h-37z" glyph-name="quotedbl" horiz-adv-x="292" unicode='"'/>
<glyph d="M580 452h-122l-33 -182h119v-50h-128l-40 -220h-54l40 220h-141l-40 -220h-54l40 220h-117v50h126l33 182h-123v50h132l36 198h54l-36 -198h141l36 198h54l-36 -198h113v-50zM371 270l33 182h-141l-33 -182h141z" glyph-name="numbersign" horiz-adv-x="630" unicode="#"/>
<glyph d="M476 184q0 -121 -97 -172q-47 -24 -108 -27v-62h-28v62q-138 5 -189 102q-24 45 -24 103h100q8 -97 90 -111q11 -1 23 -2v234q-91 39 -123 65q-63 51 -63 136q0 112 93 156q40 19 93 22v72h28v-72q130 -5 174 -95q18 -38 18 -87h-100q-6 85 -92 90v-191q91 -40 119 -60 q85 -60 86 -163zM159 517q0 -53 66 -89l18 -9v178q-82 -11 -84 -80zM271 78q102 7 103 97q0 69 -78 110q-11 7 -25 13v-220z" glyph-name="dollar" horiz-adv-x="506" unicode="$"/>
<glyph d="M210 690q90 0 134 -69q26 -40 26 -91q0 -88 -66 -133q-41 -27 -94 -27q-90 0 -134 69q-26 40 -26 91q0 88 66 133q41 27 94 27zM148 0l395 675h57l-395 -675h-57zM210 634q-67 0 -91 -56q-9 -22 -9 -48q0 -68 53 -94q21 -10 47 -10q67 0 91 56q9 22 9 48q0 68 -53 94 q-21 10 -47 10zM547 315q90 0 134 -69q26 -40 26 -91q0 -88 -66 -133q-41 -27 -94 -27q-90 0 -134 69q-26 40 -26 91q0 88 66 133q41 27 94 27zM547 259q-67 0 -91 -56q-9 -22 -9 -48q0 -68 53 -94q21 -10 47 -10q67 0 91 56q9 22 9 48q0 68 -53 94q-21 10 -47 10z" glyph-name="percent" horiz-adv-x="757" unicode="%"/>
<glyph d="M633 314q-44 -112 -94 -184l93 -130h-116l-41 57q-82 -72 -193 -72q-131 0 -195 84q-42 56 -42 133q0 130 109 196q28 16 59 27l-11 15q-46 66 -46 125q0 84 82 113q34 12 76 12q70 0 136 -25l-31 -89q-59 19 -106 19q-56 -1 -57 -40q1 -27 31 -70l194 -273q34 54 64 135 zM283 80q78 1 137 55l-156 218q-116 -44 -120 -145q0 -85 72 -115q30 -13 67 -13z" glyph-name="ampersand" horiz-adv-x="673" unicode="&amp;"/>
<glyph d="M142 715l-22 -253h-47l-23 253h92z" glyph-name="quotesingle" horiz-adv-x="192" unicode="'"/>
<glyph d="M209 768l74 -55q-127 -169 -143 -366q-3 -34 -3 -69q0 -235 132 -424l10 -14l-74 -55q-131 182 -157 374q-8 58 -8 119q0 226 114 411q25 39 55 79z" glyph-name="parenleft" horiz-adv-x="298" unicode="("/>
<glyph d="M93 -215l-74 55q137 188 142 418v20q0 213 -109 383q-18 26 -37 52l74 55q127 -170 157 -346q12 -69 12 -144q0 -233 -122 -429q-20 -32 -43 -64z" glyph-name="parenright" horiz-adv-x="298" unicode=")"/>
<glyph d="M378 563l-124 -35l80 -100l-59 -44l-71 108l-71 -109l-59 44l80 100l-124 35l23 69l120 -45l-6 129h74l-6 -128l120 45z" glyph-name="asterisk" horiz-adv-x="408" unicode="*"/>
<glyph d="M325 541v-220h219v-46h-219v-220h-50v220h-219v46h219v220h50z" glyph-name="plus" unicode="+"/>
<glyph d="M175 119v-119l-71 -143h-49l53 143h-52v119h119z" glyph-name="comma" horiz-adv-x="230" unicode=","/>
<glyph d="M306 313v-96h-261v96h261z" glyph-name="hyphen" horiz-adv-x="351" unicode="-"/>
<glyph d="M174 119v-119h-119v119h119z" glyph-name="period" horiz-adv-x="229" unicode="."/>
<glyph d="M500 782l77 -43l-469 -840l-78 42z" glyph-name="slash" horiz-adv-x="607" unicode="/"/>
<glyph d="M283 690q155 0 211 -162q27 -79 27 -190q0 -249 -128 -325q-48 -28 -110 -28q-154 0 -210 161q-28 80 -28 192q0 251 129 325q48 27 109 27zM283 598q-83 0 -117 -112q-19 -62 -19 -148q0 -184 76 -241q27 -20 60 -20q82 0 117 112q19 62 19 149q0 184 -77 241 q-27 19 -59 19z" glyph-name="zero" horiz-adv-x="566" unicode="0"/>
<glyph d="M215 675v-675h-98v577h-42v98h140z" glyph-name="one" horiz-adv-x="315" unicode="1"/>
<glyph d="M30 0v72l233 264q78 88 86 141q2 10 2 20q0 70 -60 93q-21 8 -46 8q-80 0 -106 -64q-8 -22 -9 -47h-98q3 123 97 175q52 28 120 28q131 0 181 -90q23 -42 23 -98q0 -82 -70 -172q-17 -22 -38 -45l-172 -191h279v-94h-422z" glyph-name="two" horiz-adv-x="498" unicode="2"/>
<glyph d="M249 690q121 0 177 -75q30 -43 30 -98q0 -95 -75 -138q-21 -12 -46 -18v-2q113 -13 139 -115q6 -26 6 -56q0 -125 -99 -176q-52 -27 -124 -27q-147 0 -202 98q-23 43 -25 98h98q6 -78 82 -98q22 -6 47 -6q119 2 120 117q0 87 -78 107q-33 9 -81 8h-32v88h32 q135 1 136 103q0 84 -82 96q-12 2 -25 2q-93 0 -110 -71q-3 -12 -3 -24h-98q4 113 96 161q50 26 117 26z" glyph-name="three" horiz-adv-x="515" unicode="3"/>
<glyph d="M515 213v-94h-71v-119h-96v119h-328v82l331 474h93v-462h71zM126 213h222v313h-4z" glyph-name="four" horiz-adv-x="540" unicode="4"/>
<glyph d="M293 444q116 0 172 -89q34 -55 34 -131q0 -144 -101 -205q-57 -34 -134 -34q-150 0 -218 109q-9 15 -16 31l83 51q48 -94 140 -99h11q91 0 121 78q12 30 12 67q0 93 -68 125q-28 13 -61 13q-70 0 -110 -47l-6 -8h-87l35 370h345v-94h-266l-19 -181h2q50 44 131 44z" glyph-name="five" horiz-adv-x="524" unicode="5"/>
<glyph d="M269 -15q-132 0 -197 94q-42 62 -42 149q0 122 74 231q26 39 62 81l118 140h122l-248 -290l3 -2q57 61 132 61q111 0 171 -85q42 -61 42 -145q0 -121 -87 -187q-63 -47 -150 -47zM268 77q86 0 120 69q16 32 16 73q0 92 -69 126q-31 15 -68 15q-86 0 -120 -69 q-16 -32 -16 -73q0 -92 69 -126q31 -15 68 -15z" glyph-name="six" horiz-adv-x="526" unicode="6"/>
<glyph d="M435 675v-85l-271 -590h-104l270 580h-315v95h420z" glyph-name="seven" horiz-adv-x="455" unicode="7"/>
<glyph d="M265 -15q-138 0 -198 88q-32 49 -32 114q0 102 77 152q22 14 47 22v2q-66 20 -93 87q-12 30 -12 62q0 99 85 148q53 30 126 30q123 0 179 -77q32 -44 32 -101q0 -79 -58 -125q-22 -16 -47 -24v-2q86 -26 114 -109q10 -31 10 -65q0 -118 -96 -171q-56 -31 -134 -31z M265 405q76 0 100 56q8 20 8 43q0 70 -61 92q-22 7 -47 7q-78 0 -101 -59q-7 -19 -7 -40q0 -69 60 -91q22 -8 48 -8zM265 72q99 0 121 79q6 21 6 44q0 81 -67 110q-27 11 -60 11q-86 0 -116 -65q-11 -25 -11 -56q0 -94 80 -117q22 -6 47 -6z" glyph-name="eight" horiz-adv-x="530" unicode="8"/>
<glyph d="M133 0l239 293l-2 2q-53 -57 -135 -57q-101 0 -162 78q-48 62 -48 145q0 118 85 183q63 46 149 46q135 0 196 -102q37 -63 37 -150q0 -113 -78 -229q-21 -32 -50 -68l-114 -141h-117zM260 328q82 0 116 65q15 31 15 69q0 86 -66 121q-30 15 -67 15q-83 0 -116 -66 q-15 -31 -15 -69q0 -84 64 -119q31 -16 69 -16z" glyph-name="nine" horiz-adv-x="512" unicode="9"/>
<glyph d="M174 462v-119h-119v119h119zM174 119v-119h-119v119h119z" glyph-name="colon" horiz-adv-x="229" unicode=":"/>
<glyph d="M175 462v-119h-119v119h119zM175 119v-119l-71 -143h-49l53 143h-52v119h119z" glyph-name="semicolon" horiz-adv-x="230" unicode=";"/>
<glyph d="M525 523v-54l-392 -170l392 -169v-54l-450 198v51z" glyph-name="less" unicode="&lt;"/>
<glyph d="M553 418v-48h-506v48h506zM553 229v-48h-506v48h506z" glyph-name="equal" unicode="="/>
<glyph d="M75 523l450 -198v-51l-450 -198v54l392 169l-392 170v54z" glyph-name="greater" unicode="&gt;"/>
<glyph d="M241 715q119 0 171 -83q28 -45 28 -105q0 -84 -71 -151l-5 -5q-6 -6 -19 -17q-47 -41 -60 -69q-11 -24 -11 -53v-20h-95v29q0 76 59 138q9 9 27 26q17 15 24 23q49 56 51 100q0 66 -58 86q-19 6 -41 6q-70 0 -99 -56q-13 -26 -13 -58h-99q0 127 94 181q50 28 117 28z M286 119v-119h-119v119h119z" glyph-name="question" horiz-adv-x="480" unicode="?"/>
<glyph d="M482 690q191 0 305 -117q103 -106 103 -270q0 -132 -67 -202q-45 -46 -107 -46q-88 1 -119 78h-3q-27 -56 -93 -75q-25 -7 -51 -7q-95 0 -153 73q-47 60 -47 145q0 117 81 179q53 39 120 39q92 -1 134 -77h1v62h88v-280q1 -65 50 -66q64 0 80 108q4 29 4 64 q0 167 -119 254q-87 62 -207 62q-168 0 -264 -102q-86 -92 -86 -244q0 -184 139 -278q96 -64 220 -64q104 0 196 42l31 -72q-121 -46 -228 -46q-162 0 -282 88q-157 116 -158 328q0 219 145 334q115 90 287 90zM469 401q-72 0 -107 -60q-18 -32 -18 -71q0 -76 56 -112 q31 -19 69 -19q73 0 107 61q17 32 17 70q0 74 -54 111q-31 20 -70 20z" glyph-name="at" horiz-adv-x="940" unicode="@"/>
<glyph d="M559 0l-67 174h-306l-67 -174h-114l286 700h96l286 -700h-114zM223 270h232l-116 300z" glyph-name="A" horiz-adv-x="678" unicode="A"/>
<glyph d="M437 372q94 -14 127 -97q14 -35 14 -76q0 -118 -95 -170q-53 -29 -120 -29h-293v700h266q123 0 176 -79q28 -43 28 -99q0 -92 -71 -134q-15 -9 -32 -14v-2zM314 602h-140v-194h131q121 2 122 97q0 79 -80 94q-16 3 -33 3zM342 98q88 0 115 64q8 20 8 44q0 80 -79 101 q-24 7 -54 7h-158v-216h168z" glyph-name="B" horiz-adv-x="618" unicode="B"/>
<glyph d="M410 -15q-178 0 -283 113q-92 100 -92 252q0 173 116 275q103 90 259 90q140 -1 247 -77l-64 -91q-85 62 -187 62q-127 0 -199 -87q-58 -70 -58 -172q0 -134 94 -207q69 -52 163 -52q102 0 187 62l64 -91q-108 -77 -247 -77z" glyph-name="C" horiz-adv-x="682" unicode="C"/>
<glyph d="M296 700q165 0 263 -105q89 -96 89 -245q0 -175 -118 -273q-96 -77 -234 -77h-226v700h226zM295 602h-121v-504h121q132 0 196 94q43 64 43 158q0 152 -105 217q-58 35 -134 35z" glyph-name="D" horiz-adv-x="683" unicode="D"/>
<glyph d="M174 98h301v-98h-405v700h400v-98h-296v-166h273v-98h-273v-240z" glyph-name="E" horiz-adv-x="520" unicode="E"/>
<glyph d="M475 602h-301v-197h278v-98h-278v-307h-104v700h405v-98z" glyph-name="F" horiz-adv-x="505" unicode="F"/>
<glyph d="M425 387h332v-42q0 -149 -89 -250q-98 -110 -263 -110q-167 0 -272 106q-98 101 -98 257q0 169 111 272q103 95 260 95q159 -1 269 -94l-71 -87q-83 75 -203 75q-129 0 -200 -94q-52 -70 -52 -166q0 -129 89 -202q70 -56 170 -56q133 0 200 95q32 48 37 103h-220v98z" glyph-name="G" horiz-adv-x="782" unicode="G"/>
<glyph d="M544 700h104v-700h-104v319h-370v-319h-104v700h104v-281h370v281z" glyph-name="H" horiz-adv-x="718" unicode="H"/>
<glyph d="M176 700v-700h-106v700h106z" glyph-name="I" horiz-adv-x="246" unicode="I"/>
<glyph d="M204 700v-528q-2 -176 -153 -177h-36v101h26q46 0 55 39q4 16 4 37v528h104z" glyph-name="J" horiz-adv-x="274" unicode="J"/>
<glyph d="M644 0h-154l-316 349v-349h-104v700h104v-311l278 311h144l-304 -321z" glyph-name="K" horiz-adv-x="649" unicode="K"/>
<glyph d="M174 700v-600h304v-100h-408v700h104z" glyph-name="L" horiz-adv-x="483" unicode="L"/>
<glyph d="M685 700l170 -700h-111l-116 500h-2l-157 -393h-78l-157 393h-2l-116 -500h-111l170 700h85l169 -430h2l169 430h85z" glyph-name="M" horiz-adv-x="860" unicode="M"/>
<glyph d="M629 700v-700h-109l-344 523h-2v-523h-104v700h109l344 -523h2v523h104z" glyph-name="N" horiz-adv-x="699" unicode="N"/>
<glyph d="M400 715q160 0 263 -105q102 -103 102 -260q0 -164 -109 -268q-104 -97 -256 -97q-160 0 -263 105q-102 103 -102 260q0 164 109 268q104 97 256 97zM400 609q-125 0 -196 -91q-55 -70 -55 -168q0 -128 87 -201q68 -58 164 -58q125 0 196 91q55 70 55 168q0 128 -87 201 q-68 58 -164 58z" glyph-name="O" horiz-adv-x="800" unicode="O"/>
<glyph d="M309 700q128 0 185 -92q32 -52 32 -120q0 -114 -82 -173q-55 -39 -135 -39h-135v-276h-104v700h239zM295 374q89 0 112 70q7 20 7 44q0 87 -76 108q-20 6 -43 6h-121v-228h121z" glyph-name="P" horiz-adv-x="541" unicode="P"/>
<glyph d="M779 0h-132l-42 43q-92 -58 -205 -58q-160 0 -263 105q-102 103 -102 260q0 164 109 268q104 97 256 97q160 0 263 -105q102 -103 102 -260q-1 -146 -88 -245zM400 91q72 0 127 32l-149 152h133l88 -90q52 70 52 165q0 128 -87 201q-68 58 -164 58q-125 0 -196 -91 q-55 -70 -55 -168q0 -128 87 -201q68 -58 164 -58z" glyph-name="Q" horiz-adv-x="799" unicode="Q"/>
<glyph d="M441 0l-204 291h-63v-291h-104v700h239q117 0 176 -80q38 -52 38 -126q0 -111 -83 -167q-36 -24 -80 -32l212 -295h-131zM174 602v-213h118q101 0 117 79q2 13 2 26q0 87 -81 104q-18 4 -38 4h-118z" glyph-name="R" horiz-adv-x="582" unicode="R"/>
<glyph d="M260 715q93 0 185 -47l-47 -99q-72 41 -141 41q-79 -1 -80 -60q0 -37 45 -75l10 -8l125 -96q92 -70 105 -154q3 -18 3 -36q0 -125 -105 -173q-51 -23 -119 -23q-124 0 -226 65l47 98q99 -57 180 -57q86 0 106 56q5 14 5 28q0 45 -56 92q-9 8 -18 15l-119 94 q-93 79 -96 170q0 104 88 147q46 22 108 22z" glyph-name="S" horiz-adv-x="500" unicode="S"/>
<glyph d="M508 700v-98h-197v-602h-104v602h-197v98h498z" glyph-name="T" horiz-adv-x="518" unicode="T"/>
<glyph d="M622 700v-430q0 -155 -105 -232q-72 -53 -176 -53q-152 0 -228 105q-53 73 -53 180v430h109v-427q0 -107 78 -155q41 -25 94 -25q96 0 143 73q29 45 29 107v427h109z" glyph-name="U" horiz-adv-x="682" unicode="U"/>
<glyph d="M610 700l-254 -700h-97l-254 700h120l181 -552h3l181 552h120z" glyph-name="V" horiz-adv-x="615" unicode="V"/>
<glyph d="M970 700l-210 -700h-102l-164 524h-3l-164 -524h-102l-210 700h116l144 -534h2l164 534h103l164 -534h2l144 534h116z" glyph-name="W" horiz-adv-x="985" unicode="W"/>
<glyph d="M610 0h-123l-177 287l-176 -287h-124l235 373l-204 327h124l145 -239l146 239h123l-204 -327z" glyph-name="X" horiz-adv-x="620" unicode="X"/>
<glyph d="M543 700l-219 -419v-281h-105v280l-219 420h121l149 -309h3l149 309h121z" glyph-name="Y" horiz-adv-x="543" unicode="Y"/>
<glyph d="M145 98h377v-98h-502v98l362 504h-330v98h455v-98z" glyph-name="Z" horiz-adv-x="542" unicode="Z"/>
<glyph d="M338 755v-89h-130v-793h130v-88h-228v970h228z" glyph-name="bracketleft" horiz-adv-x="348" unicode="["/>
<glyph d="M499 -101l-469 840l77 43l470 -841z" glyph-name="backslash" horiz-adv-x="607" unicode="\"/>
<glyph d="M10 -215v88h130v793h-130v89h228v-970h-228z" glyph-name="bracketright" horiz-adv-x="348" unicode="]"/>
<glyph d="M345 715l144 -322h-77l-112 260l-112 -260h-77l144 322h90z" glyph-name="asciicircum" unicode="^"/>
<glyph d="M523 -15v-82h-513v82h513z" glyph-name="underscore" horiz-adv-x="533" unicode="_"/>
<glyph d="M177 707l94 -154h-76l-145 154h127z" glyph-name="grave" horiz-adv-x="321" unicode="`"/>
<glyph d="M255 -15q-106 0 -171 79q-54 68 -54 167q0 132 89 201q59 45 136 45q108 -1 156 -83h2v68h98v-462h-98v68h-2q-49 -82 -156 -83zM276 81q84 0 122 68q20 36 20 82q0 89 -64 129q-35 21 -78 21q-84 0 -122 -68q-20 -36 -20 -82q0 -89 64 -129q35 -21 78 -21z" glyph-name="a" horiz-adv-x="571" unicode="a"/>
<glyph d="M321 -15q-108 1 -156 83h-2v-68h-98v700h98v-306h2q49 82 156 83q106 0 171 -79q54 -68 54 -167q0 -132 -89 -201q-59 -45 -136 -45zM300 81q84 0 122 68q20 36 20 82q0 89 -64 129q-35 21 -78 21q-84 0 -122 -68q-20 -36 -20 -82q0 -89 64 -129q35 -21 78 -21z" glyph-name="b" horiz-adv-x="576" unicode="b"/>
<glyph d="M284 -15q-130 0 -202 88q-52 66 -52 158q0 126 91 195q68 51 163 51q87 -1 158 -47l-46 -83q-57 35 -115 35q-86 0 -126 -68q-21 -37 -21 -83q0 -86 63 -128q37 -23 84 -23q59 1 115 35l46 -83q-72 -47 -158 -47z" glyph-name="c" horiz-adv-x="462" unicode="c"/>
<glyph d="M255 -15q-106 0 -171 79q-54 68 -54 167q0 132 89 201q59 45 136 45q108 -1 156 -83h2v306h98v-700h-98v68h-2q-49 -82 -156 -83zM276 81q84 0 122 68q20 36 20 82q0 89 -64 129q-35 21 -78 21q-84 0 -122 -68q-20 -36 -20 -82q0 -89 64 -129q35 -21 78 -21z" glyph-name="d" horiz-adv-x="576" unicode="d"/>
<glyph d="M266 477q135 0 191 -108q30 -59 30 -138v-16h-358q4 -83 69 -119q32 -17 71 -17q82 1 142 81l69 -65q-81 -109 -209 -110q-132 0 -198 94q-43 63 -43 151q0 126 83 196q63 51 153 51zM260 387q-91 0 -119 -76q-5 -12 -7 -25h247q-5 73 -73 94q-23 7 -48 7z" glyph-name="e" horiz-adv-x="517" unicode="e"/>
<glyph d="M275 619q-83 -2 -84 -90v-67h91v-83h-91v-379h-98v379h-73v83h73v64q0 125 92 167q38 17 86 17h19v-91h-15z" glyph-name="f" horiz-adv-x="300" unicode="f"/>
<glyph d="M293 -215q-70 0 -178 21l19 95q94 -21 159 -21q81 0 105 45q15 30 15 88v55h-2q-49 -82 -156 -83q-106 0 -171 79q-54 68 -54 167q0 132 89 201q59 45 136 45q108 -1 156 -83h2v68h98v-462q-5 -164 -115 -201q-41 -14 -103 -14zM276 81q84 0 122 68q20 36 20 82 q0 89 -64 129q-35 21 -78 21q-84 0 -122 -68q-20 -36 -20 -82q0 -89 64 -129q35 -21 78 -21z" glyph-name="g" horiz-adv-x="571" unicode="g"/>
<glyph d="M163 700v-308h2q49 84 151 85q131 0 164 -115q10 -35 10 -78v-284h-98v267q-2 111 -106 112q-122 -2 -123 -158v-221h-98v700h98z" glyph-name="h" horiz-adv-x="545" unicode="h"/>
<glyph d="M174 690v-120h-120v120h120zM65 0v462h98v-462h-98z" glyph-name="i" horiz-adv-x="228" unicode="i"/>
<glyph d="M174 690v-120h-120v120h120zM-6 -114h18q46 0 52 39q1 8 1 17v520h98v-530q0 -105 -87 -129q-23 -6 -49 -6h-33v89z" glyph-name="j" horiz-adv-x="228" unicode="j"/>
<glyph d="M478 0h-129l-186 227v-227h-98v700h98v-435l165 197h129l-194 -210z" glyph-name="k" horiz-adv-x="483" unicode="k"/>
<glyph d="M163 700v-700h-98v700h98z" glyph-name="l" horiz-adv-x="228" unicode="l"/>
<glyph d="M60 0v462h98v-72h2q39 86 139 87q101 -1 140 -94h2q34 79 119 92q13 2 26 2q106 0 142 -94q16 -42 16 -97v-286h-98v281q-9 93 -91 98q-88 0 -102 -101q-2 -18 -2 -38v-240h-98v281q-5 95 -92 98q-85 0 -100 -99q-3 -19 -3 -41v-239h-98z" glyph-name="m" horiz-adv-x="799" unicode="m"/>
<glyph d="M311 477q137 0 167 -124q7 -31 7 -69v-284h-98v267q-2 111 -106 112q-122 -2 -123 -158v-221h-98v462h98v-70h2q49 84 151 85z" glyph-name="n" horiz-adv-x="540" unicode="n"/>
<glyph d="M283 477q121 0 194 -83q59 -68 59 -163q0 -118 -86 -189q-70 -57 -167 -57q-121 0 -194 83q-59 68 -59 163q0 118 86 189q70 57 167 57zM283 381q-88 0 -128 -67q-21 -36 -21 -83q0 -90 69 -130q35 -20 80 -20q88 0 128 67q21 36 21 83q0 90 -69 130q-35 20 -80 20z" glyph-name="o" horiz-adv-x="566" unicode="o"/>
<glyph d="M60 -200v662h98v-68h2q49 82 156 83q106 0 171 -79q54 -68 54 -167q0 -132 -89 -201q-59 -45 -136 -45q-108 1 -156 83h-2v-268h-98zM295 81q84 0 122 68q20 36 20 82q0 89 -64 129q-35 21 -78 21q-84 0 -122 -68q-20 -36 -20 -82q0 -89 64 -129q35 -21 78 -21z" glyph-name="p" horiz-adv-x="571" unicode="p"/>
<glyph d="M413 -200v268h-2q-49 -82 -156 -83q-106 0 -171 79q-54 68 -54 167q0 132 89 201q59 45 136 45q108 -1 156 -83h2v68h98v-662h-98zM276 81q84 0 122 68q20 36 20 82q0 89 -64 129q-35 21 -78 21q-84 0 -122 -68q-20 -36 -20 -82q0 -89 64 -129q35 -21 78 -21z" glyph-name="q" horiz-adv-x="571" unicode="q"/>
<glyph d="M320 476v-115h-15q-132 0 -145 -124q-2 -16 -2 -32v-205h-98v462h98v-101h2q28 89 110 110q21 5 43 5h7z" glyph-name="r" horiz-adv-x="330" unicode="r"/>
<glyph d="M203 -15q-104 0 -188 49l44 87q76 -44 147 -44q71 1 72 43q0 26 -39 47q-5 3 -10 5l-84 41q-96 47 -97 133q0 94 93 122q32 9 71 9q80 0 160 -36l-40 -85q-70 30 -123 30q-56 -1 -57 -35q0 -27 37 -47l16 -8l86 -41q91 -44 92 -130q0 -103 -105 -131q-34 -9 -75 -9z" glyph-name="s" horiz-adv-x="403" unicode="s"/>
<glyph d="M289 379h-94v-242q6 -45 48 -48h24v-90h-45q-105 0 -122 87q-3 15 -3 32v261h-82v83h82v185h98v-185h94v-83z" glyph-name="t" horiz-adv-x="309" unicode="t"/>
<glyph d="M224 -15q-108 0 -149 91q-20 44 -20 106v280h100v-270q0 -98 77 -111q10 -1 20 -1q115 2 116 161v221h98v-462h-98v70h-2q-44 -84 -142 -85z" glyph-name="u" horiz-adv-x="526" unicode="u"/>
<glyph d="M353 462h115l-186 -462h-92l-185 462h115l116 -345z" glyph-name="v" horiz-adv-x="473" unicode="v"/>
<glyph d="M608 462h108l-155 -462h-90l-110 331l-111 -331h-90l-155 462h108l93 -333l107 333h95l107 -333z" glyph-name="w" horiz-adv-x="721" unicode="w"/>
<glyph d="M364 0l-117 166l-117 -166h-125l183 243l-157 219h126l90 -144l90 144h126l-157 -219l183 -243h-125z" glyph-name="x" horiz-adv-x="494" unicode="x"/>
<glyph d="M372 462h108l-288 -662h-104l111 242l-194 420h117l127 -303z" glyph-name="y" horiz-adv-x="485" unicode="y"/>
<glyph d="M143 91h268v-91h-386v86l251 285h-241v91h358v-86z" glyph-name="z" horiz-adv-x="436" unicode="z"/>
<glyph d="M391 745v-86h-30q-84 0 -97 -85q-3 -18 -3 -39v-98q0 -117 -77 -151q-14 -6 -30 -10v-2q90 -22 104 -115q3 -21 3 -46v-118q0 -115 83 -123q8 -1 17 -1h30v-86h-39q-123 0 -168 94q-21 46 -21 110v137q0 64 -71 89q-26 8 -57 10v100q94 5 121 63q7 17 7 36v117 q0 158 122 195q32 9 67 9h39z" glyph-name="braceleft" horiz-adv-x="401" unicode="{"/>
<glyph d="M198 727v-942h-88v942h88z" glyph-name="bar" horiz-adv-x="308" unicode="|"/>
<glyph d="M10 -215v86h30q77 0 94 70q6 24 6 54v118q0 117 77 151q14 6 30 10v2q-90 22 -104 115q-3 21 -3 46v98q0 117 -86 123q-7 1 -14 1h-30v86h39q123 0 168 -94q21 -46 21 -110v-117q0 -64 71 -89q26 -8 57 -10v-100q-94 -5 -121 -63q-7 -17 -7 -36v-137q0 -158 -122 -195 q-32 -9 -67 -9h-39z" glyph-name="braceright" horiz-adv-x="401" unicode="}"/>
<glyph d="M196 378q49 0 117 -32q60 -29 96 -29q50 0 107 47q5 4 12 10l44 -70q-86 -73 -167 -73q-47 0 -113 31q-61 29 -100 29q-53 0 -111 -48q-5 -5 -10 -9l-43 70q86 74 168 74z" glyph-name="asciitilde" unicode="~"/>
<glyph d="M100 381v119h119v-119h-119zM102 -200l24 488h67l24 -488h-115z" glyph-name="exclamdown" horiz-adv-x="319" unicode="¡"/>
<glyph d="M292 77q56 1 140 44v-98q-65 -38 -137 -38h-3v-49h-28v51q-117 12 -178 103q-41 62 -41 141q0 117 84 188q57 49 135 57v55h28v-54q75 0 135 -32v-97q-76 37 -132 37h-3v-308zM147 232q0 -92 67 -134q24 -14 50 -19v303q-78 -13 -106 -86q-11 -30 -11 -64z" glyph-name="cent" horiz-adv-x="462" unicode="¢"/>
<glyph d="M179 98v-2h301v-96h-424v75q83 48 108 117q8 23 8 45q0 38 -36 102q0 1 -1 3l-1 1v1l-1 1h-93v30h77q-31 63 -31 120q0 105 78 159q53 36 128 36q120 0 171 -81q29 -47 29 -111h-100q-4 92 -86 99q-8 1 -14 1q-74 0 -97 -61q-7 -20 -7 -43q1 -44 39 -119h180v-30h-165 q31 -62 31 -103q-1 -83 -94 -144z" glyph-name="sterling" horiz-adv-x="522" unicode="£"/>
<glyph d="M538 324q-1 -96 -60 -159l55 -55l-20 -19l-55 55q-66 -54 -158 -54q-92 1 -159 54l-55 -55l-19 20l54 54q-59 66 -59 159q1 94 59 159l-54 54l20 20l55 -55q66 54 158 54q93 -1 158 -54l55 55l20 -20l-54 -54q59 -66 59 -159zM300 184q85 0 122 65q18 33 18 75 q0 86 -66 122q-33 18 -74 18q-85 0 -122 -65q-18 -33 -18 -75q0 -86 66 -122q33 -18 74 -18z" glyph-name="currency" unicode="¤"/>
<glyph d="M545 675l-157 -323h115v-30h-129l-27 -56h156v-30h-170v-236h-98v236h-169v30h157l-27 56h-130v30h116l-157 323h115l145 -337l145 337h115z" glyph-name="yen" horiz-adv-x="570" unicode="¥"/>
<glyph d="M198 727v-388h-88v388h88zM198 181v-396h-88v396h88z" glyph-name="brokenbar" horiz-adv-x="308" unicode="¦"/>
<glyph d="M405 107q49 -45 49 -111q0 -96 -86 -135q-44 -19 -103 -19q-99 1 -191 57l54 83q72 -47 144 -47q77 0 83 50q1 5 1 9q0 44 -66 77q-16 8 -55 25q-97 40 -134 75q-51 49 -51 120q1 102 93 159q-49 45 -49 111q0 96 86 135q44 19 103 19q99 -1 191 -57l-54 -83 q-72 47 -144 47q-77 0 -83 -50q-1 -5 -1 -9q0 -44 66 -77q16 -8 55 -25q97 -40 134 -75q51 -49 51 -120q-1 -102 -93 -159zM148 301q0 -55 73 -95q19 -10 62 -29q33 -15 49 -23q67 43 68 102q0 55 -73 95q-19 10 -62 29q-33 15 -49 23q-67 -43 -68 -102z" glyph-name="section" horiz-adv-x="548" unicode="§"/>
<glyph d="M150 690v-120h-100v120h100zM338 690v-120h-100v120h100z" glyph-name="dieresis" horiz-adv-x="388" unicode="¨"/>
<glyph d="M414 -15q-149 0 -254 100q-107 110 -110 265q0 156 106 261q109 101 258 104q149 0 254 -100q107 -110 110 -265q0 -156 -106 -261q-109 -101 -258 -104zM414 44q133 0 219 92q82 86 82 214q0 142 -98 230q-85 76 -203 76q-133 0 -219 -92q-82 -86 -82 -214 q0 -142 98 -230q85 -76 203 -76zM418 128q-112 0 -179 80q-52 62 -52 147q0 110 81 176q63 51 150 51q83 -1 151 -49l-37 -68q-64 38 -117 38q-85 0 -124 -67q-20 -35 -20 -81q0 -89 67 -128q34 -20 77 -20q54 0 117 38l37 -68q-69 -49 -151 -49z" glyph-name="copyright" horiz-adv-x="828" unicode="©"/>
<glyph d="M203 338q-79 0 -123 61q-30 43 -30 102q0 96 72 140q37 23 81 23q78 -1 112 -62h2v52h85v-306h-85v52h-2q-35 -61 -112 -62zM227 414q59 0 80 47q8 18 8 40q0 61 -52 81q-17 6 -36 6q-59 0 -80 -48q-7 -18 -7 -39q0 -62 52 -81q17 -6 35 -6z" glyph-name="ordfeminine" horiz-adv-x="452" unicode="ª"/>
<glyph d="M277 393l-147 -159l147 -159h-110l-147 159l147 159h110zM458 393l-147 -159l147 -159h-110l-147 159l147 159h110z" glyph-name="guillemotleft" horiz-adv-x="468" unicode="«"/>
<glyph d="M71 432h458v-48v-217h-50v217h-408v48z" glyph-name="logicalnot" unicode="¬"/>
<glyph d="M306 313v-96h-261v96h261z" glyph-name="uni00AD" horiz-adv-x="351" unicode="­"/>
<glyph d="M280 715q119 0 183 -84q47 -62 47 -148q0 -121 -86 -186q-60 -46 -144 -46q-119 0 -183 84q-47 62 -47 148q0 121 86 186q60 46 144 46zM280 286q103 0 157 76q36 51 36 121q0 109 -79 164q-50 33 -114 33q-103 0 -157 -76q-36 -51 -36 -121q0 -109 79 -164 q50 -33 114 -33zM376 547q0 -50 -43 -70q-9 -4 -17 -6l72 -110h-44l-67 108h-38v-108h-35v260h93q53 0 72 -42q7 -15 7 -32zM239 589v-88h51q41 0 48 33q1 6 1 10q0 37 -36 44q-7 1 -13 1h-51z" glyph-name="registered" horiz-adv-x="560" unicode="®"/>
<glyph d="M340 662v-72h-290v72h290z" glyph-name="macron" horiz-adv-x="390" unicode="¯"/>
<glyph d="M176 690q77 0 115 -60q21 -34 21 -76q0 -78 -61 -116q-34 -20 -75 -20q-77 0 -115 60q-21 34 -21 76q0 78 61 116q34 20 75 20zM176 643q-55 0 -78 -46q-10 -20 -10 -43q0 -56 47 -80q19 -9 41 -9q53 0 77 45q10 20 10 44q0 56 -46 80q-19 9 -41 9z" glyph-name="degree" horiz-adv-x="352" unicode="°"/>
<glyph d="M325 522v-137h214v-48h-214v-137h-50v137h-214v48h214v137h50zM539 156v-48h-478v48h478z" glyph-name="plusminus" unicode="±"/>
<glyph d="M39 348v80l166 148q51 46 58 74q2 9 2 18q0 43 -46 52q-11 2 -21 2q-65 0 -74 -59q-1 -7 -1 -14h-88q0 119 104 147q28 8 61 8q115 0 146 -80q9 -25 9 -53q-2 -75 -78 -143l-112 -95h196v-85h-322z" glyph-name="uni00B2" horiz-adv-x="391" unicode="²"/>
<glyph d="M199 338q-162 2 -164 141h88q5 -58 80 -59q80 2 81 64q0 44 -51 55q-24 4 -63 5v73q99 2 100 52q-2 50 -67 51q-70 -2 -74 -60h-88q0 101 91 132q34 11 75 11q110 0 143 -68q11 -22 11 -48q0 -68 -60 -91q-13 -5 -26 -7v-2q96 -16 97 -110q0 -101 -97 -129 q-34 -10 -76 -10z" glyph-name="uni00B3" horiz-adv-x="407" unicode="³"/>
<glyph d="M271 707l-144 -154h-77l95 154h126z" glyph-name="acute" horiz-adv-x="321" unicode="´"/>
<glyph d="M566 700v-74h-60v-732h-79v732h-104v-732h-79v416q-113 0 -164 85q-30 49 -30 114q0 110 85 161q51 30 119 30h312z" glyph-name="paragraph" horiz-adv-x="616" unicode="¶"/>
<glyph d="M174 462v-119h-119v119h119z" glyph-name="periodcentered" horiz-adv-x="229" unicode="·"/>
<glyph d="M146 28l-22 -64q67 -23 69 -71q0 -42 -66 -76q-18 -9 -64 -29l-13 28q69 34 79 49q3 6 3 11q0 23 -36 34q-10 3 -28 7l40 111h38z" glyph-name="cedilla" horiz-adv-x="243" unicode="¸"/>
<glyph d="M80 348v358h-25v88h121v-446h-96z" glyph-name="uni00B9" horiz-adv-x="246" unicode="¹"/>
<glyph d="M224 664q96 0 144 -66q30 -42 30 -97q0 -94 -76 -138q-43 -25 -98 -25q-96 0 -144 66q-30 42 -30 97q0 94 76 138q43 25 98 25zM224 587q-53 0 -76 -43q-10 -20 -10 -43q0 -58 50 -79q17 -7 36 -7q53 0 76 43q10 20 10 43q0 58 -50 79q-17 7 -36 7z" glyph-name="ordmasculine" horiz-adv-x="448" unicode="º"/>
<glyph d="M10 393h110l147 -159l-147 -159h-110l147 159zM191 393h110l147 -159l-147 -159h-110l147 159z" glyph-name="guillemotright" horiz-adv-x="468" unicode="»"/>
<glyph d="M78 289v329h-38v57h95v-386h-57zM450 675h57l-395 -675h-57zM630 129v-56h-51v-73h-59v73h-203v53l184 260h78v-257h51zM382 129h138v194h-2z" glyph-name="onequarter" horiz-adv-x="655" unicode="¼"/>
<glyph d="M135 675v-386h-57v329h-38v57h95zM55 0l395 675h57l-395 -675h-57zM507 395q96 0 120 -73q7 -20 7 -43q0 -58 -61 -115l-7 -7l-109 -101h177v-56h-261l-1 51l147 139q53 51 54 88q0 43 -41 56q-11 3 -24 3q-68 -2 -77 -68h-58q5 103 96 122q18 4 38 4z" glyph-name="onehalf" horiz-adv-x="679" unicode="½"/>
<glyph d="M321 396q0 -91 -92 -111q-24 -5 -52 -5q-105 0 -134 76q-7 19 -8 41h61q11 -58 81 -59q83 2 84 64q0 59 -94 63h-17v54q96 3 97 56q-2 50 -66 51q-72 -2 -77 -62h-59q7 105 109 118q14 2 28 2q99 0 121 -67q5 -16 5 -33q-2 -69 -72 -87v-1q84 -15 85 -100zM596 675h57 l-395 -675h-57zM776 129v-56h-51v-73h-59v73h-203v53l184 260h78v-257h51zM528 129h138v194h-2z" glyph-name="threequarters" horiz-adv-x="801" unicode="¾"/>
<glyph d="M174 381v119h119v-119h-119zM219 -215q-119 0 -171 83q-28 45 -28 105q0 84 71 151l5 5q6 6 19 17q47 41 60 69q11 24 11 53v20h95v-29q0 -76 -59 -138q-9 -9 -27 -26q-17 -15 -24 -23q-49 -56 -51 -100q0 -66 58 -86q19 -6 41 -6q70 0 99 56q13 26 13 58h99 q0 -127 -94 -181q-50 -28 -117 -28z" glyph-name="questiondown" horiz-adv-x="420" unicode="¿"/>
<glyph d="M380 743h-74l-147 120h126zM559 0l-67 174h-306l-67 -174h-114l286 700h96l286 -700h-114zM223 270h232l-116 300z" glyph-name="Agrave" horiz-adv-x="678" unicode="À"/>
<glyph d="M519 863l-147 -120h-74l95 120h126zM559 0l-67 174h-306l-67 -174h-114l286 700h96l286 -700h-114zM223 270h232l-116 300z" glyph-name="Aacute" horiz-adv-x="678" unicode="Á"/>
<glyph d="M339 818l-75 -75h-93l120 120h97l120 -120h-93zM559 0l-67 174h-306l-67 -174h-114l286 700h96l286 -700h-114zM223 270h232l-116 300z" glyph-name="Acircumflex" horiz-adv-x="678" unicode="Â"/>
<glyph d="M260 789q-36 -2 -55 -45l-37 11q34 101 103 108q28 0 101 -29q44 -17 63 -17q36 2 55 45l37 -11q-24 -99 -91 -107q-6 -1 -11 -1q-28 0 -102 29q-43 17 -63 17zM559 0l-67 174h-306l-67 -174h-114l286 700h96l286 -700h-114zM223 270h232l-116 300z" glyph-name="Atilde" horiz-adv-x="678" unicode="Ã"/>
<glyph d="M287 847v-104h-106v104h106zM497 847v-104h-106v104h106zM559 0l-67 174h-306l-67 -174h-114l286 700h96l286 -700h-114zM223 270h232l-116 300z" glyph-name="Adieresis" horiz-adv-x="678" unicode="Ä"/>
<glyph d="M559 0l-67 174h-306l-67 -174h-114l273 668q-55 34 -56 101q0 69 55 101q28 16 62 16q69 0 101 -55q16 -28 16 -62q-1 -68 -56 -101l273 -668h-114zM338 839q-46 0 -62 -41q-5 -14 -5 -29q0 -47 39 -63q13 -6 28 -6q48 0 63 42q5 13 5 27q0 49 -41 65q-13 5 -27 5z M223 270h232l-116 300z" glyph-name="Aring" horiz-adv-x="678" unicode="Å"/>
<glyph d="M613 98h275v-98h-317h-60v174h-265l-110 -174h-131l455 700h153h270v-98h-270v-166h246v-98h-246v-240zM307 270h204v322z" glyph-name="AE" horiz-adv-x="933" unicode="Æ"/>
<glyph d="M657 62q-103 -74 -238 -77l-7 -21q67 -23 69 -71q0 -42 -66 -76q-18 -9 -64 -29l-13 28q69 34 79 49q3 6 3 11q0 23 -36 34q-10 3 -28 7l25 69q-170 10 -266 126q-80 97 -80 238q0 173 116 275q103 90 259 90q140 -1 247 -77l-64 -91q-85 62 -187 62q-127 0 -199 -87 q-58 -70 -58 -172q0 -134 94 -207q69 -52 163 -52q102 0 187 62z" glyph-name="Ccedilla" horiz-adv-x="682" unicode="Ç"/>
<glyph d="M331 743h-74l-147 120h126zM174 98h301v-98h-405v700h400v-98h-296v-166h273v-98h-273v-240z" glyph-name="Egrave" horiz-adv-x="520" unicode="È"/>
<glyph d="M470 863l-147 -120h-74l95 120h126zM174 98h301v-98h-405v700h400v-98h-296v-166h273v-98h-273v-240z" glyph-name="Eacute" horiz-adv-x="520" unicode="É"/>
<glyph d="M290 818l-75 -75h-93l120 120h97l120 -120h-93zM174 98h301v-98h-405v700h400v-98h-296v-166h273v-98h-273v-240z" glyph-name="Ecircumflex" horiz-adv-x="520" unicode="Ê"/>
<glyph d="M238 847v-104h-106v104h106zM448 847v-104h-106v104h106zM174 98h301v-98h-405v700h400v-98h-296v-166h273v-98h-273v-240z" glyph-name="Edieresis" horiz-adv-x="520" unicode="Ë"/>
<glyph d="M69 863l95 -120h-74l-147 120h126zM176 700v-700h-106v700h106z" glyph-name="Igrave" horiz-adv-x="246" unicode="Ì"/>
<glyph d="M303 863l-147 -120h-74l95 120h126zM176 700v-700h-106v700h106z" glyph-name="Iacute" horiz-adv-x="246" unicode="Í"/>
<glyph d="M172 863l120 -120h-93l-76 75l-75 -75h-93l120 120h97zM176 700v-700h-106v700h106z" glyph-name="Icircumflex" horiz-adv-x="246" unicode="Î"/>
<glyph d="M71 847v-104h-106v104h106zM281 847v-104h-106v104h106zM176 700v-700h-106v700h106z" glyph-name="Idieresis" horiz-adv-x="246" unicode="Ï"/>
<glyph d="M306 700q165 0 263 -105q89 -96 89 -245q0 -175 -118 -273q-96 -77 -234 -77h-226v313h-80v84h80v303h226zM305 98q132 0 196 94q43 64 43 158q0 152 -105 217q-58 35 -134 35h-121v-205h162v-84h-162v-215h121z" glyph-name="Eth" horiz-adv-x="693" unicode="Ð"/>
<glyph d="M435 743q-28 0 -102 29q-43 17 -63 17q-36 -2 -55 -45l-37 11q34 101 103 108q28 0 101 -29q44 -17 63 -17q36 2 55 45l37 -11q-24 -99 -91 -107q-6 -1 -11 -1zM629 700v-700h-109l-344 523h-2v-523h-104v700h109l344 -523h2v523h104z" glyph-name="Ntilde" horiz-adv-x="699" unicode="Ñ"/>
<glyph d="M347 863l95 -120h-74l-147 120h126zM400 715q160 0 263 -105q102 -103 102 -260q0 -164 -109 -268q-104 -97 -256 -97q-160 0 -263 105q-102 103 -102 260q0 164 109 268q104 97 256 97zM400 609q-125 0 -196 -91q-55 -70 -55 -168q0 -128 87 -201q68 -58 164 -58 q125 0 196 91q55 70 55 168q0 128 -87 201q-68 58 -164 58z" glyph-name="Ograve" horiz-adv-x="800" unicode="Ò"/>
<glyph d="M581 863l-147 -120h-74l95 120h126zM400 715q160 0 263 -105q102 -103 102 -260q0 -164 -109 -268q-104 -97 -256 -97q-160 0 -263 105q-102 103 -102 260q0 164 109 268q104 97 256 97zM400 609q-125 0 -196 -91q-55 -70 -55 -168q0 -128 87 -201q68 -58 164 -58 q125 0 196 91q55 70 55 168q0 128 -87 201q-68 58 -164 58z" glyph-name="Oacute" horiz-adv-x="800" unicode="Ó"/>
<glyph d="M450 863l120 -120h-93l-76 75l-75 -75h-93l120 120h97zM400 715q160 0 263 -105q102 -103 102 -260q0 -164 -109 -268q-104 -97 -256 -97q-160 0 -263 105q-102 103 -102 260q0 164 109 268q104 97 256 97zM400 609q-125 0 -196 -91q-55 -70 -55 -168q0 -128 87 -201 q68 -58 164 -58q125 0 196 91q55 70 55 168q0 128 -87 201q-68 58 -164 58z" glyph-name="Ocircumflex" horiz-adv-x="800" unicode="Ô"/>
<glyph d="M487 743q-28 0 -102 29q-43 17 -63 17q-36 -2 -55 -45l-37 11q34 101 103 108q28 0 101 -29q44 -17 63 -17q36 2 55 45l37 -11q-24 -99 -91 -107q-6 -1 -11 -1zM400 715q160 0 263 -105q102 -103 102 -260q0 -164 -109 -268q-104 -97 -256 -97q-160 0 -263 105 q-102 103 -102 260q0 164 109 268q104 97 256 97zM400 609q-125 0 -196 -91q-55 -70 -55 -168q0 -128 87 -201q68 -58 164 -58q125 0 196 91q55 70 55 168q0 128 -87 201q-68 58 -164 58z" glyph-name="Otilde" horiz-adv-x="800" unicode="Õ"/>
<glyph d="M349 847v-104h-106v104h106zM559 847v-104h-106v104h106zM400 715q160 0 263 -105q102 -103 102 -260q0 -164 -109 -268q-104 -97 -256 -97q-160 0 -263 105q-102 103 -102 260q0 164 109 268q104 97 256 97zM400 609q-125 0 -196 -91q-55 -70 -55 -168q0 -128 87 -201 q68 -58 164 -58q125 0 196 91q55 70 55 168q0 128 -87 201q-68 58 -164 58z" glyph-name="Odieresis" horiz-adv-x="800" unicode="Ö"/>
<glyph d="M481 514l35 -35l-181 -181l181 -181l-35 -35l-181 181l-181 -181l-35 35l181 181l-181 181l35 35l181 -181z" glyph-name="multiply" unicode="×"/>
<glyph d="M634 637q115 -92 129 -247q2 -20 2 -40q0 -164 -109 -268q-104 -97 -256 -97q-112 1 -201 55l-39 -54l-34 21l41 56q-115 90 -130 246q-2 21 -2 41q0 164 109 268q104 97 256 97q114 -1 202 -56l40 55l33 -21zM149 350q1 -125 83 -198l306 419q-62 38 -138 38 q-125 0 -196 -91q-55 -70 -55 -168zM400 91q125 0 196 91q55 70 55 168q-1 124 -82 197l-305 -419q59 -37 136 -37z" glyph-name="Oslash" horiz-adv-x="800" unicode="Ø"/>
<glyph d="M287 863l95 -120h-74l-147 120h126zM622 700v-430q0 -155 -105 -232q-72 -53 -176 -53q-152 0 -228 105q-53 73 -53 180v430h109v-427q0 -107 78 -155q41 -25 94 -25q96 0 143 73q29 45 29 107v427h109z" glyph-name="Ugrave" horiz-adv-x="682" unicode="Ù"/>
<glyph d="M521 863l-147 -120h-74l95 120h126zM622 700v-430q0 -155 -105 -232q-72 -53 -176 -53q-152 0 -228 105q-53 73 -53 180v430h109v-427q0 -107 78 -155q41 -25 94 -25q96 0 143 73q29 45 29 107v427h109z" glyph-name="Uacute" horiz-adv-x="682" unicode="Ú"/>
<glyph d="M390 863l120 -120h-93l-76 75l-75 -75h-93l120 120h97zM622 700v-430q0 -155 -105 -232q-72 -53 -176 -53q-152 0 -228 105q-53 73 -53 180v430h109v-427q0 -107 78 -155q41 -25 94 -25q96 0 143 73q29 45 29 107v427h109z" glyph-name="Ucircumflex" horiz-adv-x="682" unicode="Û"/>
<glyph d="M289 847v-104h-106v104h106zM499 847v-104h-106v104h106zM622 700v-430q0 -155 -105 -232q-72 -53 -176 -53q-152 0 -228 105q-53 73 -53 180v430h109v-427q0 -107 78 -155q41 -25 94 -25q96 0 143 73q29 45 29 107v427h109z" glyph-name="Udieresis" horiz-adv-x="682" unicode="Ü"/>
<glyph d="M452 863l-147 -120h-74l95 120h126zM543 700l-219 -419v-281h-105v280l-219 420h121l149 -309h3l149 309h121z" glyph-name="Yacute" horiz-adv-x="543" unicode="Ý"/>
<glyph d="M170 700v-133h124q134 0 194 -91q33 -52 33 -120q0 -114 -84 -172q-59 -40 -143 -40h-124v-144h-100v700h100zM294 471h-124v-231h124q90 0 118 65q9 23 9 51q0 85 -77 108q-23 7 -50 7z" glyph-name="Thorn" horiz-adv-x="556" unicode="Þ"/>
<glyph d="M336 396q142 -7 181 -113q12 -35 12 -77q0 -143 -130 -191q-56 -20 -129 -20h-48v92h39q139 0 161 83q5 19 5 41q0 99 -99 123q-42 10 -103 10v86q127 0 140 75q2 11 2 22q0 76 -67 91q-14 3 -29 3q-76 0 -100 -62q-8 -21 -8 -48v-641h-98v635q0 118 82 175q53 35 127 35 q121 0 169 -83q23 -40 23 -88q0 -108 -108 -140q-11 -4 -22 -6v-2z" glyph-name="germandbls" horiz-adv-x="559" unicode="ß"/>
<glyph d="M225 707l94 -154h-76l-145 154h127zM255 -15q-106 0 -171 79q-54 68 -54 167q0 132 89 201q59 45 136 45q108 -1 156 -83h2v68h98v-462h-98v68h-2q-49 -82 -156 -83zM276 81q84 0 122 68q20 36 20 82q0 89 -64 129q-35 21 -78 21q-84 0 -122 -68q-20 -36 -20 -82 q0 -89 64 -129q35 -21 78 -21z" glyph-name="agrave" horiz-adv-x="571" unicode="à"/>
<glyph d="M464 707l-144 -154h-77l95 154h126zM255 -15q-106 0 -171 79q-54 68 -54 167q0 132 89 201q59 45 136 45q108 -1 156 -83h2v68h98v-462h-98v68h-2q-49 -82 -156 -83zM276 81q84 0 122 68q20 36 20 82q0 89 -64 129q-35 21 -78 21q-84 0 -122 -68q-20 -36 -20 -82 q0 -89 64 -129q35 -21 78 -21z" glyph-name="aacute" horiz-adv-x="571" unicode="á"/>
<glyph d="M330 707l124 -154h-94l-79 95l-79 -95h-94l124 154h98zM255 -15q-106 0 -171 79q-54 68 -54 167q0 132 89 201q59 45 136 45q108 -1 156 -83h2v68h98v-462h-98v68h-2q-49 -82 -156 -83zM276 81q84 0 122 68q20 36 20 82q0 89 -64 129q-35 21 -78 21q-84 0 -122 -68 q-20 -36 -20 -82q0 -89 64 -129q35 -21 78 -21z" glyph-name="acircumflex" horiz-adv-x="571" unicode="â"/>
<glyph d="M212 704q29 0 93 -31q42 -20 61 -20q33 2 53 45l40 -11q-20 -98 -84 -110q-8 -1 -16 -1q-30 0 -94 31q-41 20 -60 20q-33 -2 -53 -45l-41 11q18 90 77 108q12 3 24 3zM255 -15q-106 0 -171 79q-54 68 -54 167q0 132 89 201q59 45 136 45q108 -1 156 -83h2v68h98v-462h-98 v68h-2q-49 -82 -156 -83zM276 81q84 0 122 68q20 36 20 82q0 89 -64 129q-35 21 -78 21q-84 0 -122 -68q-20 -36 -20 -82q0 -89 64 -129q35 -21 78 -21z" glyph-name="atilde" horiz-adv-x="571" unicode="ã"/>
<glyph d="M237 690v-120h-100v120h100zM425 690v-120h-100v120h100zM255 -15q-106 0 -171 79q-54 68 -54 167q0 132 89 201q59 45 136 45q108 -1 156 -83h2v68h98v-462h-98v68h-2q-49 -82 -156 -83zM276 81q84 0 122 68q20 36 20 82q0 89 -64 129q-35 21 -78 21q-84 0 -122 -68 q-20 -36 -20 -82q0 -89 64 -129q35 -21 78 -21z" glyph-name="adieresis" horiz-adv-x="571" unicode="ä"/>
<glyph d="M281 747q70 0 102 -55q17 -28 17 -62q0 -69 -56 -101q-28 -16 -63 -16q-70 0 -102 55q-17 28 -17 62q0 69 56 101q28 16 63 16zM281 700q-48 0 -65 -41q-5 -14 -5 -29q0 -46 39 -64q15 -6 31 -6q48 0 65 41q5 14 5 29q0 46 -39 64q-15 6 -31 6zM255 -15q-106 0 -171 79 q-54 68 -54 167q0 132 89 201q59 45 136 45q108 -1 156 -83h2v68h98v-462h-98v68h-2q-49 -82 -156 -83zM276 81q84 0 122 68q20 36 20 82q0 89 -64 129q-35 21 -78 21q-84 0 -122 -68q-20 -36 -20 -82q0 -89 64 -129q35 -21 78 -21z" glyph-name="aring" horiz-adv-x="571" unicode="å"/>
<glyph d="M196 -15q-97 0 -151 63q-35 43 -35 100q0 88 75 133q46 27 108 27q95 -1 139 -56h2v40q-2 96 -107 97q-60 0 -152 -24l-21 87q95 25 180 25q122 -1 157 -89h2q40 68 129 85q23 4 47 4q125 0 182 -101q33 -61 33 -145v-16h-354q5 -92 74 -123q28 -13 63 -13q78 0 132 68 q4 5 10 13l67 -63q-77 -111 -205 -112q-107 0 -168 71q-14 17 -23 35h-2q-34 -78 -128 -100q-27 -6 -54 -6zM435 286h242q-2 64 -60 90q-27 11 -58 11q-85 0 -115 -71q-6 -15 -9 -30zM217 69q75 0 105 43q12 17 12 37q0 49 -59 68q-26 9 -57 9q-82 0 -100 -54q-4 -12 -4 -24 q0 -54 56 -72q22 -7 47 -7z" glyph-name="ae" horiz-adv-x="814" unicode="æ"/>
<glyph d="M284 -15h-4l-7 -21q67 -23 69 -71q0 -42 -66 -76q-18 -9 -64 -29l-13 28q69 34 79 49q3 6 3 11q0 23 -36 34q-10 3 -28 7l25 71q-119 15 -176 108q-36 60 -36 135q0 126 91 195q68 51 163 51q87 -1 158 -47l-46 -83q-57 35 -115 35q-86 0 -126 -68q-21 -37 -21 -83 q0 -86 63 -128q37 -23 84 -23q59 1 115 35l46 -83q-72 -47 -158 -47z" glyph-name="ccedilla" horiz-adv-x="462" unicode="ç"/>
<glyph d="M214 707l94 -154h-76l-145 154h127zM266 477q135 0 191 -108q30 -59 30 -138v-16h-358q4 -83 69 -119q32 -17 71 -17q82 1 142 81l69 -65q-81 -109 -209 -110q-132 0 -198 94q-43 63 -43 151q0 126 83 196q63 51 153 51zM260 387q-91 0 -119 -76q-5 -12 -7 -25h247 q-5 73 -73 94q-23 7 -48 7z" glyph-name="egrave" horiz-adv-x="517" unicode="è"/>
<glyph d="M453 707l-144 -154h-77l95 154h126zM266 477q135 0 191 -108q30 -59 30 -138v-16h-358q4 -83 69 -119q32 -17 71 -17q82 1 142 81l69 -65q-81 -109 -209 -110q-132 0 -198 94q-43 63 -43 151q0 126 83 196q63 51 153 51zM260 387q-91 0 -119 -76q-5 -12 -7 -25h247 q-5 73 -73 94q-23 7 -48 7z" glyph-name="eacute" horiz-adv-x="517" unicode="é"/>
<glyph d="M319 707l124 -154h-94l-79 95l-79 -95h-94l124 154h98zM266 477q135 0 191 -108q30 -59 30 -138v-16h-358q4 -83 69 -119q32 -17 71 -17q82 1 142 81l69 -65q-81 -109 -209 -110q-132 0 -198 94q-43 63 -43 151q0 126 83 196q63 51 153 51zM260 387q-91 0 -119 -76 q-5 -12 -7 -25h247q-5 73 -73 94q-23 7 -48 7z" glyph-name="ecircumflex" horiz-adv-x="517" unicode="ê"/>
<glyph d="M226 690v-120h-100v120h100zM414 690v-120h-100v120h100zM266 477q135 0 191 -108q30 -59 30 -138v-16h-358q4 -83 69 -119q32 -17 71 -17q82 1 142 81l69 -65q-81 -109 -209 -110q-132 0 -198 94q-43 63 -43 151q0 126 83 196q63 51 153 51zM260 387q-91 0 -119 -76 q-5 -12 -7 -25h247q-5 73 -73 94q-23 7 -48 7z" glyph-name="edieresis" horiz-adv-x="517" unicode="ë"/>
<glyph d="M98 707l54 -154h-76l-80 154h102zM65 0v462h98v-462h-98z" glyph-name="igrave" horiz-adv-x="228" unicode="ì"/>
<glyph d="M76 553l54 154h102l-80 -154h-76zM65 0v462h98v-462h-98z" glyph-name="iacute" horiz-adv-x="228" unicode="í"/>
<glyph d="M163 707l90 -154h-90l-49 95l-49 -95h-90l90 154h98zM65 0v462h98v-462h-98z" glyph-name="icircumflex" horiz-adv-x="228" unicode="î"/>
<glyph d="M95 690v-120h-95v120h95zM228 690v-120h-95v120h95zM65 0v462h98v-462h-98z" glyph-name="idieresis" horiz-adv-x="228" unicode="ï"/>
<glyph d="M393 665q144 -117 144 -357q0 -243 -155 -305q-47 -18 -102 -18q-137 0 -206 95q-44 63 -44 148q0 134 93 203q63 46 148 46q116 -1 170 -90h2q-18 141 -121 221l-111 -91l-34 38l100 82q-65 33 -145 47l19 80q119 -20 198 -69l81 66l32 -39zM284 80q85 0 126 64 q24 38 24 88q0 92 -72 131q-35 19 -79 19q-90 0 -129 -70q-20 -36 -20 -82q0 -92 71 -131q35 -19 79 -19z" glyph-name="eth" horiz-adv-x="577" unicode="ð"/>
<glyph d="M219 704q29 0 93 -31q42 -20 61 -20q33 2 53 45l40 -11q-20 -98 -84 -110q-8 -1 -16 -1q-30 0 -94 31q-41 20 -60 20q-33 -2 -53 -45l-41 11q18 90 77 108q12 3 24 3zM311 477q137 0 167 -124q7 -31 7 -69v-284h-98v267q-2 111 -106 112q-122 -2 -123 -158v-221h-98v462 h98v-70h2q49 84 151 85z" glyph-name="ntilde" horiz-adv-x="540" unicode="ñ"/>
<glyph d="M227 707l94 -154h-76l-145 154h127zM283 477q121 0 194 -83q59 -68 59 -163q0 -118 -86 -189q-70 -57 -167 -57q-121 0 -194 83q-59 68 -59 163q0 118 86 189q70 57 167 57zM283 381q-88 0 -128 -67q-21 -36 -21 -83q0 -90 69 -130q35 -20 80 -20q88 0 128 67 q21 36 21 83q0 90 -69 130q-35 20 -80 20z" glyph-name="ograve" horiz-adv-x="566" unicode="ò"/>
<glyph d="M466 707l-144 -154h-77l95 154h126zM283 477q121 0 194 -83q59 -68 59 -163q0 -118 -86 -189q-70 -57 -167 -57q-121 0 -194 83q-59 68 -59 163q0 118 86 189q70 57 167 57zM283 381q-88 0 -128 -67q-21 -36 -21 -83q0 -90 69 -130q35 -20 80 -20q88 0 128 67 q21 36 21 83q0 90 -69 130q-35 20 -80 20z" glyph-name="oacute" horiz-adv-x="566" unicode="ó"/>
<glyph d="M332 707l124 -154h-94l-79 95l-79 -95h-94l124 154h98zM283 477q121 0 194 -83q59 -68 59 -163q0 -118 -86 -189q-70 -57 -167 -57q-121 0 -194 83q-59 68 -59 163q0 118 86 189q70 57 167 57zM283 381q-88 0 -128 -67q-21 -36 -21 -83q0 -90 69 -130q35 -20 80 -20 q88 0 128 67q21 36 21 83q0 90 -69 130q-35 20 -80 20z" glyph-name="ocircumflex" horiz-adv-x="566" unicode="ô"/>
<glyph d="M214 704q29 0 93 -31q42 -20 61 -20q33 2 53 45l40 -11q-20 -98 -84 -110q-8 -1 -16 -1q-30 0 -94 31q-41 20 -60 20q-33 -2 -53 -45l-41 11q18 90 77 108q12 3 24 3zM283 477q121 0 194 -83q59 -68 59 -163q0 -118 -86 -189q-70 -57 -167 -57q-121 0 -194 83 q-59 68 -59 163q0 118 86 189q70 57 167 57zM283 381q-88 0 -128 -67q-21 -36 -21 -83q0 -90 69 -130q35 -20 80 -20q88 0 128 67q21 36 21 83q0 90 -69 130q-35 20 -80 20z" glyph-name="otilde" horiz-adv-x="566" unicode="õ"/>
<glyph d="M239 690v-120h-100v120h100zM427 690v-120h-100v120h100zM283 477q121 0 194 -83q59 -68 59 -163q0 -118 -86 -189q-70 -57 -167 -57q-121 0 -194 83q-59 68 -59 163q0 118 86 189q70 57 167 57zM283 381q-88 0 -128 -67q-21 -36 -21 -83q0 -90 69 -130q35 -20 80 -20 q88 0 128 67q21 36 21 83q0 90 -69 130q-35 20 -80 20z" glyph-name="odieresis" horiz-adv-x="566" unicode="ö"/>
<glyph d="M340 497v-84h-80v84h80zM559 323v-48h-518v48h518zM340 185v-85h-80v85h80z" glyph-name="divide" unicode="÷"/>
<glyph d="M459 411q77 -70 77 -180q0 -118 -86 -189q-70 -57 -167 -57q-89 1 -157 49l-42 -48l-27 23l43 48q-70 71 -70 174q0 118 86 189q70 57 167 57q83 -1 148 -43l38 43l27 -24zM134 231q1 -58 32 -98l200 227q-38 21 -83 21q-88 0 -128 -67q-21 -36 -21 -83zM283 81 q88 0 128 67q21 36 21 83q-1 65 -38 106l-202 -229q39 -27 91 -27z" glyph-name="oslash" horiz-adv-x="566" unicode="ø"/>
<glyph d="M206 707l94 -154h-76l-145 154h127zM224 -15q-108 0 -149 91q-20 44 -20 106v280h100v-270q0 -98 77 -111q10 -1 20 -1q115 2 116 161v221h98v-462h-98v70h-2q-44 -84 -142 -85z" glyph-name="ugrave" horiz-adv-x="526" unicode="ù"/>
<glyph d="M445 707l-144 -154h-77l95 154h126zM224 -15q-108 0 -149 91q-20 44 -20 106v280h100v-270q0 -98 77 -111q10 -1 20 -1q115 2 116 161v221h98v-462h-98v70h-2q-44 -84 -142 -85z" glyph-name="uacute" horiz-adv-x="526" unicode="ú"/>
<glyph d="M311 707l124 -154h-94l-79 95l-79 -95h-94l124 154h98zM224 -15q-108 0 -149 91q-20 44 -20 106v280h100v-270q0 -98 77 -111q10 -1 20 -1q115 2 116 161v221h98v-462h-98v70h-2q-44 -84 -142 -85z" glyph-name="ucircumflex" horiz-adv-x="526" unicode="û"/>
<glyph d="M218 690v-120h-100v120h100zM406 690v-120h-100v120h100zM224 -15q-108 0 -149 91q-20 44 -20 106v280h100v-270q0 -98 77 -111q10 -1 20 -1q115 2 116 161v221h98v-462h-98v70h-2q-44 -84 -142 -85z" glyph-name="udieresis" horiz-adv-x="526" unicode="ü"/>
<glyph d="M430 707l-144 -154h-77l95 154h126zM372 462h108l-288 -662h-104l111 242l-194 420h117l127 -303z" glyph-name="yacute" horiz-adv-x="485" unicode="ý"/>
<glyph d="M65 -200v900h98v-306h2q49 82 156 83q105 0 169 -79q54 -68 54 -167q0 -132 -88 -201q-59 -45 -135 -45q-108 1 -156 83h-2v-268h-98zM300 81q84 0 122 68q20 36 20 82q0 89 -64 129q-35 21 -78 21q-84 0 -122 -68q-20 -36 -20 -82q0 -89 64 -129q35 -21 78 -21z" glyph-name="thorn" horiz-adv-x="574" unicode="þ"/>
<glyph d="M238 847v-104h-106v104h106zM448 847v-104h-106v104h106zM174 98h301v-98h-405v700h400v-98h-296v-166h273v-98h-273v-240z" glyph-name="uni0401" horiz-adv-x="520" unicode="Ё"/>
<glyph d="M487 425q180 0 204 -130q4 -23 4 -48v-59q0 -133 -101 -173q-37 -15 -85 -15h-79v98h58q84 0 99 58q4 16 4 36v53q-2 81 -115 82q-73 0 -170 -7v-320h-104v602h-192v98h544v-98h-248v-185q109 8 181 8z" glyph-name="uni0402" horiz-adv-x="715" unicode="Ђ"/>
<glyph d="M447 863l-147 -120h-74l95 120h126zM465 700v-98h-291v-602h-104v700h395z" glyph-name="uni0403" horiz-adv-x="475" unicode="Ѓ"/>
<glyph d="M389 89q112 0 209 69l55 -90q-120 -83 -263 -83q-183 0 -279 121q-76 96 -76 244q0 199 129 297q92 68 226 68q144 -1 263 -83l-55 -90q-98 69 -209 69q-134 0 -199 -98q-29 -45 -39 -104h310v-98h-312q14 -142 123 -196q52 -26 117 -26z" glyph-name="uni0404" horiz-adv-x="678" unicode="Є"/>
<glyph d="M260 715q93 0 185 -47l-47 -99q-72 41 -141 41q-79 -1 -80 -60q0 -37 45 -75l10 -8l125 -96q92 -70 105 -154q3 -18 3 -36q0 -125 -105 -173q-51 -23 -119 -23q-124 0 -226 65l47 98q99 -57 180 -57q86 0 106 56q5 14 5 28q0 45 -56 92q-9 8 -18 15l-119 94 q-93 79 -96 170q0 104 88 147q46 22 108 22z" glyph-name="uni0405" horiz-adv-x="500" unicode="Ѕ"/>
<glyph d="M176 700v-700h-106v700h106z" glyph-name="uni0406" horiz-adv-x="246" unicode="І"/>
<glyph d="M71 847v-104h-106v104h106zM281 847v-104h-106v104h106zM176 700v-700h-106v700h106z" glyph-name="uni0407" horiz-adv-x="246" unicode="Ї"/>
<glyph d="M204 700v-528q-2 -176 -153 -177h-36v101h26q46 0 55 39q4 16 4 37v528h104z" glyph-name="uni0408" horiz-adv-x="274" unicode="Ј"/>
<glyph d="M792 421q119 0 179 -79q41 -54 41 -132q0 -125 -97 -180q-54 -30 -123 -30h-258v602h-310v-430q-2 -176 -153 -177h-56v101h46q46 0 55 39q4 16 4 37v528h518v-279h154zM782 98q88 0 111 69q7 20 7 43q0 83 -70 106q-22 7 -48 7h-144v-225h144z" glyph-name="uni0409" horiz-adv-x="1032" unicode="Љ"/>
<glyph d="M787 421q119 0 179 -79q41 -54 41 -132q0 -125 -97 -180q-54 -30 -123 -30h-258v323h-355v-323h-104v700h104v-279h355v279h104v-279h154zM777 98q88 0 111 69q7 20 7 43q0 83 -70 106q-22 7 -48 7h-144v-225h144z" glyph-name="uni040A" horiz-adv-x="1027" unicode="Њ"/>
<glyph d="M502 415q192 -2 193 -188v-227h-104v225q0 73 -60 88q-20 4 -45 4h-180v-317h-104v602h-192v98h296h248v-98h-248v-187h196z" glyph-name="uni040B" horiz-adv-x="715" unicode="Ћ"/>
<glyph d="M500 863l-147 -120h-74l95 120h126zM644 0h-154l-316 349v-349h-104v700h104v-311l278 311h144l-304 -321z" glyph-name="uni040C" horiz-adv-x="649" unicode="Ќ"/>
<glyph d="M305 723q-95 0 -125 80q-10 27 -11 60h67q2 -80 69 -82q68 0 69 76v6h67q-2 -100 -78 -130q-27 -10 -58 -10zM490 700h110l-322 -700h-110l85 184l-253 516h120l188 -395z" glyph-name="uni040E" unicode="Ў"/>
<glyph d="M636 700v-700h-235v-140h-96v140h-235v700h104v-602h358v602h104z" glyph-name="uni040F" horiz-adv-x="706" unicode="Џ"/>
<glyph d="M559 0l-67 174h-306l-67 -174h-114l286 700h96l286 -700h-114zM223 270h232l-116 300z" glyph-name="uni0410" horiz-adv-x="678" unicode="А"/>
<glyph d="M338 421q119 0 179 -79q41 -54 41 -132q0 -125 -97 -180q-54 -30 -123 -30h-268v700h104h349v-98h-349v-181h164zM328 98q88 0 111 69q7 20 7 43q0 83 -70 106q-22 7 -48 7h-154v-225h154z" glyph-name="uni0411" horiz-adv-x="588" unicode="Б"/>
<glyph d="M437 372q94 -14 127 -97q14 -35 14 -76q0 -118 -95 -170q-53 -29 -120 -29h-293v700h266q123 0 176 -79q28 -43 28 -99q0 -92 -71 -134q-15 -9 -32 -14v-2zM314 602h-140v-194h131q121 2 122 97q0 79 -80 94q-16 3 -33 3zM342 98q88 0 115 64q8 20 8 44q0 80 -79 101 q-24 7 -54 7h-158v-216h168z" glyph-name="uni0412" horiz-adv-x="618" unicode="В"/>
<glyph d="M465 700v-98h-291v-602h-104v700h395z" glyph-name="uni0413" horiz-adv-x="475" unicode="Г"/>
<glyph d="M572 83h70v-223h-96v125h-445v-125h-96v223h69q55 113 61 253q1 25 1 52v312h436v-617zM240 392q0 -169 -52 -306q-1 -2 -1 -3h281v519h-228v-210z" glyph-name="uni0414" horiz-adv-x="672" unicode="Д"/>
<glyph d="M174 98h301v-98h-405v700h400v-98h-296v-166h273v-98h-273v-240z" glyph-name="uni0415" horiz-adv-x="520" unicode="Е"/>
<glyph d="M989 0h-147l-294 357v-357h-102v357l-294 -357h-147l320 373l-266 327h143l244 -321v321h102v-321l244 321h143l-266 -327z" glyph-name="uni0416" horiz-adv-x="994" unicode="Ж"/>
<glyph d="M291 715q162 0 207 -101q15 -33 15 -73q0 -120 -118 -160q-13 -4 -27 -7v-2q115 -15 154 -101q16 -36 16 -80q0 -124 -108 -176q-64 -30 -157 -30q-134 0 -248 65l48 96q103 -61 206 -61q123 0 147 76q5 17 5 35q-2 120 -202 121h-69v100h68q144 0 171 75q6 16 6 33 q0 79 -101 89q-14 1 -27 1q-95 0 -196 -58l-47 91q119 67 257 67z" glyph-name="uni0417" horiz-adv-x="578" unicode="З"/>
<glyph d="M70 700h104v-528h2l344 528h109v-700h-104v528h-2l-344 -528h-109v700z" glyph-name="uni0418" horiz-adv-x="699" unicode="И"/>
<glyph d="M485 863q-2 -100 -78 -130q-27 -10 -58 -10q-95 0 -125 80q-10 27 -11 60h67q2 -80 69 -82q68 0 69 76v6h67zM70 700h104v-528h2l344 528h109v-700h-104v528h-2l-344 -528h-109v700z" glyph-name="uni0419" horiz-adv-x="699" unicode="Й"/>
<glyph d="M644 0h-154l-316 349v-349h-104v700h104v-311l278 311h144l-304 -321z" glyph-name="uni041A" horiz-adv-x="649" unicode="К"/>
<glyph d="M628 700v-700h-104v602h-310v-430q-2 -176 -153 -177h-46v101h36q46 0 55 39q4 16 4 37v528h518z" glyph-name="uni041B" horiz-adv-x="698" unicode="Л"/>
<glyph d="M685 700l170 -700h-111l-116 500h-2l-157 -393h-78l-157 393h-2l-116 -500h-111l170 700h85l169 -430h2l169 430h85z" glyph-name="uni041C" horiz-adv-x="860" unicode="М"/>
<glyph d="M544 700h104v-700h-104v319h-370v-319h-104v700h104v-281h370v281z" glyph-name="uni041D" horiz-adv-x="718" unicode="Н"/>
<glyph d="M400 715q160 0 263 -105q102 -103 102 -260q0 -164 -109 -268q-104 -97 -256 -97q-160 0 -263 105q-102 103 -102 260q0 164 109 268q104 97 256 97zM400 609q-125 0 -196 -91q-55 -70 -55 -168q0 -128 87 -201q68 -58 164 -58q125 0 196 91q55 70 55 168q0 128 -87 201 q-68 58 -164 58z" glyph-name="uni041E" horiz-adv-x="800" unicode="О"/>
<glyph d="M638 700v-700h-104v602h-360v-602h-104v700h568z" glyph-name="uni041F" horiz-adv-x="708" unicode="П"/>
<glyph d="M309 700q128 0 185 -92q32 -52 32 -120q0 -114 -82 -173q-55 -39 -135 -39h-135v-276h-104v700h239zM295 374q89 0 112 70q7 20 7 44q0 87 -76 108q-20 6 -43 6h-121v-228h121z" glyph-name="uni0420" horiz-adv-x="541" unicode="Р"/>
<glyph d="M410 -15q-178 0 -283 113q-92 100 -92 252q0 173 116 275q103 90 259 90q140 -1 247 -77l-64 -91q-85 62 -187 62q-127 0 -199 -87q-58 -70 -58 -172q0 -134 94 -207q69 -52 163 -52q102 0 187 62l64 -91q-108 -77 -247 -77z" glyph-name="uni0421" horiz-adv-x="682" unicode="С"/>
<glyph d="M508 700v-98h-197v-602h-104v602h-197v98h498z" glyph-name="uni0422" horiz-adv-x="518" unicode="Т"/>
<glyph d="M490 700h110l-322 -700h-110l85 184l-253 516h120l188 -395z" glyph-name="uni0423" unicode="У"/>
<glyph d="M470 663q191 0 278 -121q55 -78 55 -192q0 -180 -130 -262q-83 -52 -203 -52v-66h-102v66q-189 0 -276 120q-57 78 -57 194q0 183 133 264q82 49 200 49v66h102v-66zM148 350q0 -175 151 -207q32 -7 69 -7h3v427h-3q-185 0 -215 -154q-5 -28 -5 -59zM470 136 q180 0 213 147q7 31 7 67q0 179 -159 208q-29 5 -61 5h-3v-427h3z" glyph-name="uni0424" horiz-adv-x="838" unicode="Ф"/>
<glyph d="M610 0h-123l-177 287l-176 -287h-124l235 373l-204 327h124l145 -239l146 239h123l-204 -327z" glyph-name="uni0425" horiz-adv-x="620" unicode="Х"/>
<glyph d="M592 98h70v-238h-96v140h-496v700h104v-602h314v602h104v-602z" glyph-name="uni0426" horiz-adv-x="692" unicode="Ц"/>
<glyph d="M409 700h104v-700h-104v285h-196q-192 2 -193 188v227h104v-225q0 -73 60 -88q20 -4 45 -4h180v317z" glyph-name="uni0427" horiz-adv-x="583" unicode="Ч"/>
<glyph d="M70 0v700h104v-602h260v602h104v-602h260v602h104v-700h-832z" glyph-name="uni0428" horiz-adv-x="972" unicode="Ш"/>
<glyph d="M902 98h70v-238h-96v140h-806v700h104v-602h260v602h104v-602h260v602h104v-602z" glyph-name="uni0429" horiz-adv-x="1002" unicode="Щ"/>
<glyph d="M459 421q119 0 179 -79q41 -54 41 -132q0 -125 -97 -180q-54 -30 -123 -30h-268v602h-181v98h285v-279h164zM449 98q88 0 111 69q7 20 7 43q0 83 -70 106q-22 7 -48 7h-154v-225h154z" glyph-name="uni042A" horiz-adv-x="699" unicode="Ъ"/>
<glyph d="M338 421q119 0 179 -79q41 -54 41 -132q0 -125 -97 -180q-54 -30 -123 -30h-268v700h104v-279h164zM639 700h106v-700h-106v700zM328 98q88 0 111 69q7 20 7 43q0 83 -70 106q-22 7 -48 7h-154v-225h154z" glyph-name="uni042B" horiz-adv-x="815" unicode="Ы"/>
<glyph d="M338 421q119 0 179 -79q41 -54 41 -132q0 -125 -97 -180q-54 -30 -123 -30h-268v700h104v-279h164zM328 98q88 0 111 69q7 20 7 43q0 83 -70 106q-22 7 -48 7h-154v-225h154z" glyph-name="uni042C" horiz-adv-x="578" unicode="Ь"/>
<glyph d="M288 715q183 0 279 -121q76 -96 76 -244q0 -199 -129 -297q-92 -68 -226 -68q-144 1 -263 83l55 90q98 -69 209 -69q136 0 200 99q33 52 40 123h-312v98h310q-21 133 -130 181q-49 21 -108 21q-112 0 -209 -69l-55 90q120 83 263 83z" glyph-name="uni042D" horiz-adv-x="678" unicode="Э"/>
<glyph d="M625 715q160 0 263 -105q102 -103 102 -260q0 -164 -109 -268q-104 -97 -256 -97q-160 0 -263 105q-84 86 -99 211h-89v-301h-104v700h104v-301h89q18 153 134 242q97 74 228 74zM625 91q125 0 196 91q55 70 55 168q0 128 -87 201q-68 58 -164 58q-125 0 -196 -91 q-55 -70 -55 -168q0 -128 87 -201q68 -58 164 -58z" glyph-name="uni042E" horiz-adv-x="1025" unicode="Ю"/>
<glyph d="M283 700h249v-700h-104v291h-73l-204 -291h-131l212 295q-101 19 -143 105q-20 43 -20 94q0 117 89 173q54 33 125 33zM300 389h128v213h-128q-101 0 -117 -81q-2 -13 -2 -27q0 -83 79 -101q19 -4 40 -4z" glyph-name="uni042F" horiz-adv-x="602" unicode="Я"/>
<glyph d="M255 -15q-106 0 -171 79q-54 68 -54 167q0 132 89 201q59 45 136 45q108 -1 156 -83h2v68h98v-462h-98v68h-2q-49 -82 -156 -83zM276 81q84 0 122 68q20 36 20 82q0 89 -64 129q-35 21 -78 21q-84 0 -122 -68q-20 -36 -20 -82q0 -89 64 -129q35 -21 78 -21z" glyph-name="uni0430" horiz-adv-x="571" unicode="а"/>
<glyph d="M288 -15q-159 0 -222 127q-36 71 -36 177q0 220 114 301q5 3 8 5q40 25 161 56q24 6 37 10q51 15 53 43h97q0 -77 -50 -105q-17 -10 -42 -17q-19 -6 -66 -16q-101 -24 -135 -42q-75 -43 -89 -173h3q45 103 161 118q17 2 35 2q122 0 184 -91q41 -60 41 -144 q0 -132 -91 -201q-67 -50 -163 -50zM289 81q82 0 124 62q25 38 25 88q0 89 -69 129q-36 21 -80 21q-82 0 -124 -62q-25 -38 -25 -88q0 -89 69 -129q36 -21 80 -21z" glyph-name="uni0431" horiz-adv-x="572" unicode="б"/>
<glyph d="M366 241q99 -15 100 -111q0 -85 -86 -117q-37 -13 -80 -13h-240v462h248q95 0 130 -60q14 -25 14 -56q-2 -85 -86 -104v-1zM286 382h-128v-104h129q61 3 63 54q0 42 -48 49q-8 1 -16 1zM291 80q63 0 73 46q1 7 1 13q-2 60 -65 61h-142v-120h133z" glyph-name="uni0432" horiz-adv-x="501" unicode="в"/>
<glyph d="M360 462v-92h-202v-370h-98v462h300z" glyph-name="uni0433" horiz-adv-x="365" unicode="г"/>
<glyph d="M444 75h65v-205h-86v115h-337v-115h-86v205h60q38 69 38 149v238h98h210h38v-387zM196 218q0 -79 -32 -143h182v297h-150v-154z" glyph-name="uni0434" horiz-adv-x="524" unicode="д"/>
<glyph d="M266 477q135 0 191 -108q30 -59 30 -138v-16h-358q4 -83 69 -119q32 -17 71 -17q82 1 142 81l69 -65q-81 -109 -209 -110q-132 0 -198 94q-43 63 -43 151q0 126 83 196q63 51 153 51zM260 387q-91 0 -119 -76q-5 -12 -7 -25h247q-5 73 -73 94q-23 7 -48 7z" glyph-name="uni0435" horiz-adv-x="517" unicode="е"/>
<glyph d="M731 0h-129l-186 232v-232h-96v232l-186 -232h-129l207 250l-187 212h130l165 -202v202h96v-202l165 202h130l-187 -212z" glyph-name="uni0436" horiz-adv-x="736" unicode="ж"/>
<glyph d="M211 -15q-114 0 -191 44l41 84q71 -38 153 -38q111 1 112 63q-5 61 -97 62h-96v85h89q84 1 85 50q-2 51 -90 52q-69 0 -151 -32l-33 88q93 34 190 34q148 0 179 -80q7 -19 7 -39q0 -69 -65 -97q-20 -9 -42 -12v-3q107 -9 120 -94q2 -12 2 -23q0 -113 -136 -138 q-35 -6 -77 -6z" glyph-name="uni0437" horiz-adv-x="454" unicode="з"/>
<glyph d="M60 0v462h98v-307h2l229 307h91v-462h-98v307h-2l-229 -307h-91z" glyph-name="uni0438" horiz-adv-x="540" unicode="и"/>
<glyph d="M406 640q0 -92 -70 -126q-30 -14 -66 -14q-85 0 -119 66q-17 33 -17 74h68q3 -58 48 -70q10 -3 20 -3q50 0 64 49q3 12 4 24h68zM60 0v462h98v-307h2l229 307h91v-462h-98v307h-2l-229 -307h-91z" glyph-name="uni0439" horiz-adv-x="540" unicode="й"/>
<glyph d="M473 0h-129l-186 227v-227h-98v462h98v-197l165 197h129l-194 -210z" glyph-name="uni043A" horiz-adv-x="478" unicode="к"/>
<glyph d="M469 462v-462h-98v370h-190v-243q0 -103 -79 -128q-21 -6 -44 -6h-48v89h32q38 9 41 46v334h386z" glyph-name="uni043B" horiz-adv-x="529" unicode="л"/>
<glyph d="M15 0l127 462h89l100 -246h2l101 246h89l127 -462h-99l-80 317h-2l-102 -244h-69l-102 244h-2l-80 -317h-99z" glyph-name="uni043C" horiz-adv-x="665" unicode="м"/>
<glyph d="M393 462h98v-462h-98v194h-235v-194h-98v462h98v-176h235v176z" glyph-name="uni043D" horiz-adv-x="551" unicode="н"/>
<glyph d="M283 477q121 0 194 -83q59 -68 59 -163q0 -118 -86 -189q-70 -57 -167 -57q-121 0 -194 83q-59 68 -59 163q0 118 86 189q70 57 167 57zM283 381q-88 0 -128 -67q-21 -36 -21 -83q0 -90 69 -130q35 -20 80 -20q88 0 128 67q21 36 21 83q0 90 -69 130q-35 20 -80 20z" glyph-name="uni043E" horiz-adv-x="566" unicode="о"/>
<glyph d="M471 462v-462h-98v370h-215v-370h-98v462h98h313z" glyph-name="uni043F" horiz-adv-x="531" unicode="п"/>
<glyph d="M60 -200v662h98v-68h2q49 82 156 83q106 0 171 -79q54 -68 54 -167q0 -132 -89 -201q-59 -45 -136 -45q-108 1 -156 83h-2v-268h-98zM295 81q84 0 122 68q20 36 20 82q0 89 -64 129q-35 21 -78 21q-84 0 -122 -68q-20 -36 -20 -82q0 -89 64 -129q35 -21 78 -21z" glyph-name="uni0440" horiz-adv-x="571" unicode="р"/>
<glyph d="M284 -15q-130 0 -202 88q-52 66 -52 158q0 126 91 195q68 51 163 51q87 -1 158 -47l-46 -83q-57 35 -115 35q-86 0 -126 -68q-21 -37 -21 -83q0 -86 63 -128q37 -23 84 -23q59 1 115 35l46 -83q-72 -47 -158 -47z" glyph-name="uni0441" horiz-adv-x="462" unicode="с"/>
<glyph d="M424 462v-90h-161v-372h-98v372h-160v90h419z" glyph-name="uni0442" horiz-adv-x="429" unicode="т"/>
<glyph d="M372 462h108l-288 -662h-104l111 242l-194 420h117l127 -303z" glyph-name="uni0443" horiz-adv-x="485" unicode="у"/>
<glyph d="M377 -200v268h-2q-46 -82 -145 -83q-106 0 -159 93q-36 63 -36 153q0 145 85 210q47 36 110 36q100 -1 145 -83h2v281h94v-281h2q46 82 145 83q108 0 160 -94q35 -63 35 -152q0 -146 -85 -211q-47 -35 -110 -35q-100 1 -145 83h-2v-268h-94zM256 74q82 0 113 79 q13 35 13 78q0 102 -63 140q-28 17 -63 17q-90 0 -111 -99q-6 -27 -6 -58q0 -122 75 -150q20 -7 42 -7zM592 74q90 0 111 99q6 27 6 58q0 122 -75 150q-20 7 -42 7q-82 0 -113 -79q-13 -35 -13 -78q0 -102 63 -140q28 -17 63 -17z" glyph-name="uni0444" horiz-adv-x="848" unicode="ф"/>
<glyph d="M364 0l-117 166l-117 -166h-125l183 243l-157 219h126l90 -144l90 144h126l-157 -219l183 -243h-125z" glyph-name="uni0445" horiz-adv-x="494" unicode="х"/>
<glyph d="M456 92h55v-222h-86v130h-267h-98v462h98v-370h200v370h98v-370z" glyph-name="uni0446" horiz-adv-x="526" unicode="ц"/>
<glyph d="M300 462h98v-462h-98v175h-140q-144 2 -145 131v156h98v-145q0 -50 46 -54h10h131v199z" glyph-name="uni0447" horiz-adv-x="458" unicode="ч"/>
<glyph d="M626 462h98v-462h-98h-283h-252h-31v462h98v-370h185v370h98v-370h185v370z" glyph-name="uni0448" horiz-adv-x="784" unicode="ш"/>
<glyph d="M724 92h55v-222h-86v130h-252h-283h-98v462h98v-370h185v370h98v-370h185v370h98v-370z" glyph-name="uni0449" horiz-adv-x="794" unicode="щ"/>
<glyph d="M383 296q109 0 149 -75q17 -32 17 -72q0 -81 -66 -123q-43 -26 -101 -26h-217v370h-160v92h258v-166h120zM373 87q70 3 72 60q-2 61 -72 62h-110v-122h110z" glyph-name="uni044A" horiz-adv-x="566" unicode="ъ"/>
<glyph d="M278 296q109 0 149 -75q17 -32 17 -72q0 -81 -66 -123q-43 -26 -101 -26h-217v462h98v-166h120zM489 462h98v-462h-98v462zM268 87q70 3 72 60q-2 61 -72 62h-110v-122h110z" glyph-name="uni044B" horiz-adv-x="647" unicode="ы"/>
<glyph d="M278 296q109 0 149 -75q17 -32 17 -72q0 -81 -66 -123q-43 -26 -101 -26h-217v462h98v-166h120zM268 87q70 3 72 60q-2 61 -72 62h-110v-122h110z" glyph-name="uni044C" horiz-adv-x="461" unicode="ь"/>
<glyph d="M188 477q146 0 204 -108q31 -58 31 -138q0 -161 -114 -219q-52 -27 -121 -27q-89 1 -168 48l45 83q63 -35 122 -35q99 0 128 84q4 12 6 24h-172v84h172q-17 92 -106 106q-14 2 -28 2q-60 0 -122 -35l-45 83q79 48 168 48z" glyph-name="uni044D" horiz-adv-x="458" unicode="э"/>
<glyph d="M475 477q121 0 194 -83q59 -68 59 -163q0 -118 -86 -189q-70 -57 -167 -57q-122 0 -195 85q-44 51 -55 120h-67v-190h-98v462h98v-189h67q17 108 109 165q63 39 141 39zM475 81q88 0 128 67q21 36 21 83q0 90 -69 130q-35 20 -80 20q-88 0 -128 -67q-21 -36 -21 -83 q0 -90 69 -130q35 -20 80 -20z" glyph-name="uni044E" horiz-adv-x="758" unicode="ю"/>
<glyph d="M198 462h235v-462h-98v167h-70l-132 -167h-118l138 171q-86 16 -112 89q-9 25 -9 52q0 85 69 126q42 24 97 24zM209 255h126v117h-126q-72 -2 -73 -58q2 -58 73 -59z" glyph-name="uni044F" horiz-adv-x="493" unicode="я"/>
<glyph d="M236 640v-120h-95v120h95zM399 640v-120h-95v120h95zM266 477q135 0 191 -108q30 -59 30 -138v-16h-358q4 -83 69 -119q32 -17 71 -17q82 1 142 81l69 -65q-81 -109 -209 -110q-132 0 -198 94q-43 63 -43 151q0 126 83 196q63 51 153 51zM260 387q-91 0 -119 -76 q-5 -12 -7 -25h247q-5 73 -73 94q-23 7 -48 7z" glyph-name="uni0451" horiz-adv-x="517" unicode="ё"/>
<glyph d="M316 477q131 0 164 -115q10 -35 10 -78v-346q0 -126 -108 -137q-10 -1 -20 -1h-61v92h43q46 4 48 49v326q-2 111 -106 112q-122 -2 -123 -158v-221h-98v565h-65v60h65v75h98v-75h140v-60h-140v-173h2q49 84 151 85z" glyph-name="uni0452" horiz-adv-x="545" unicode="ђ"/>
<glyph d="M406 657l-144 -154h-77l95 154h126zM360 462v-92h-202v-370h-98v462h300z" glyph-name="uni0453" horiz-adv-x="365" unicode="ѓ"/>
<glyph d="M271 81q60 0 122 35l45 -83q-79 -48 -168 -48q-146 0 -204 108q-31 58 -31 138q0 161 114 219q52 27 121 27q89 -1 168 -48l-45 -83q-63 35 -122 35q-99 0 -128 -84q-4 -12 -6 -24h172v-84h-172q17 -92 106 -106q14 -2 28 -2z" glyph-name="uni0454" horiz-adv-x="458" unicode="є"/>
<glyph d="M203 -15q-104 0 -188 49l44 87q76 -44 147 -44q71 1 72 43q0 26 -39 47q-5 3 -10 5l-84 41q-96 47 -97 133q0 94 93 122q32 9 71 9q80 0 160 -36l-40 -85q-70 30 -123 30q-56 -1 -57 -35q0 -27 37 -47l16 -8l86 -41q91 -44 92 -130q0 -103 -105 -131q-34 -9 -75 -9z" glyph-name="uni0455" horiz-adv-x="403" unicode="ѕ"/>
<glyph d="M174 690v-120h-120v120h120zM65 0v462h98v-462h-98z" glyph-name="uni0456" horiz-adv-x="228" unicode="і"/>
<glyph d="M95 640v-120h-95v120h95zM228 640v-120h-95v120h95zM65 0v462h98v-462h-98z" glyph-name="uni0457" horiz-adv-x="228" unicode="ї"/>
<glyph d="M174 690v-120h-120v120h120zM-6 -114h18q46 0 52 39q1 8 1 17v520h98v-530q0 -105 -87 -129q-23 -6 -49 -6h-33v89z" glyph-name="uni0458" horiz-adv-x="228" unicode="ј"/>
<glyph d="M554 296q109 0 149 -75q17 -32 17 -72q0 -81 -66 -123q-43 -26 -101 -26h-207v370h-180v-243q0 -103 -79 -128q-21 -6 -44 -6h-33v89h17q38 9 41 46v334h376v-166h110zM544 87q70 3 72 60q-2 61 -72 62h-100v-122h100z" glyph-name="uni0459" horiz-adv-x="737" unicode="љ"/>
<glyph d="M591 298q109 0 149 -76q17 -32 17 -73q0 -81 -66 -123q-43 -26 -101 -26h-207v206h-225v-206h-98v462h98v-164h225v164h98v-164h110zM581 87q71 5 74 60q-2 58 -74 59h-100v-119h100z" glyph-name="uni045A" horiz-adv-x="774" unicode="њ"/>
<glyph d="M316 477q131 0 164 -115q10 -35 10 -78v-284h-98v267q-2 111 -106 112q-122 -2 -123 -158v-221h-98v565h-65v60h65v75h98v-75h140v-60h-140v-173h2q49 84 151 85z" glyph-name="uni045B" horiz-adv-x="545" unicode="ћ"/>
<glyph d="M420 657l-144 -154h-77l95 154h126zM473 0h-129l-186 227v-227h-98v462h98v-197l165 197h129l-194 -210z" glyph-name="uni045C" horiz-adv-x="478" unicode="ќ"/>
<glyph d="M247 500q-85 0 -119 66q-17 33 -17 74h68q3 -58 48 -70q10 -3 20 -3q50 0 64 49q3 12 4 24h68q0 -92 -70 -126q-30 -14 -66 -14zM372 462h108l-288 -662h-104l111 242l-194 420h117l127 -303z" glyph-name="uni045E" horiz-adv-x="485" unicode="ў"/>
<glyph d="M373 462h98v-462h-162v-130h-87v130h-162v462h98v-370h215v370z" glyph-name="uni045F" horiz-adv-x="531" unicode="џ"/>
<glyph d="M405 421q119 0 179 -79q41 -54 41 -132q0 -125 -97 -180q-54 -30 -123 -30h-268v511h-127v92h127v97h104v-97h206v-92h-206v-90h164zM395 98q88 0 111 69q7 20 7 43q0 83 -70 106q-22 7 -48 7h-154v-225h154z" glyph-name="uni0462" horiz-adv-x="645" unicode="Ѣ"/>
<glyph d="M313 296q111 0 151 -75q17 -32 17 -72q0 -81 -67 -122q-43 -27 -102 -27h-217v382h-95v80h95v238h98v-238h140v-80h-140v-86h120zM303 89q67 0 73 49q1 5 1 9q-2 58 -74 59h-110v-117h110z" glyph-name="uni0463" horiz-adv-x="498" unicode="ѣ"/>
<glyph d="M400 715q160 0 263 -105q102 -103 102 -260q0 -164 -109 -268q-104 -97 -256 -97q-160 0 -263 105q-102 103 -102 260q0 164 109 268q104 97 256 97zM400 609q-126 0 -199 -89q-47 -59 -55 -138h508q-12 118 -103 182q-65 45 -151 45zM400 91q126 0 199 89q47 59 55 138 h-508q12 -118 103 -182q65 -45 151 -45z" glyph-name="uni0472" horiz-adv-x="800" unicode="Ѳ"/>
<glyph d="M283 477q121 0 194 -83q59 -68 59 -163q0 -118 -86 -189q-70 -57 -167 -57q-121 0 -194 83q-59 68 -59 163q0 118 86 189q70 57 167 57zM283 386q-90 0 -132 -68q-15 -26 -20 -57h304q-13 83 -86 113q-31 12 -66 12zM283 76q90 0 132 68q15 26 20 57h-304q13 -83 86 -113 q31 -12 66 -12z" glyph-name="uni0473" horiz-adv-x="566" unicode="ѳ"/>
<glyph d="M539 553l-191 -553h-96l-247 700h120l174 -539h2l134 419q28 89 76 116q34 19 91 19q19 0 45 -3v-95q-16 1 -37 1q-40 0 -59 -37q-7 -12 -12 -28z" glyph-name="uni0474" horiz-adv-x="652" unicode="Ѵ"/>
<glyph d="M470 471h7v-96h-7q-37 0 -55 -35q-4 -8 -7 -16l-126 -324h-92l-185 462h110l121 -346l92 265q22 63 67 80q28 10 75 10z" glyph-name="uni0475" horiz-adv-x="482" unicode="ѵ"/>
<glyph d="M526 488q0 -114 -80 -172q-7 -5 -12 -8l60 -85l-37 -27l-65 93q-37 -13 -83 -13h-135v-276h-104v700h239q128 0 185 -92q32 -52 32 -120zM295 374q19 0 34 3l-60 86l37 27l66 -94q42 29 42 92q0 87 -76 108q-20 6 -43 6h-121v-228h121z" glyph-name="uni048E" horiz-adv-x="541" unicode="Ҏ"/>
<glyph d="M541 231q0 -130 -86 -198q-3 -3 -5 -4l58 -71l-32 -27l-62 76q-45 -22 -98 -22q-108 1 -156 83h-2v-268h-98v662h98v-68h2q49 82 156 83q106 0 171 -79q54 -68 54 -167zM295 81q27 0 51 8l-53 65l32 27l59 -71q53 43 53 121q0 89 -64 129q-35 21 -78 21q-84 0 -122 -68 q-20 -36 -20 -82q0 -89 64 -129q35 -21 78 -21z" glyph-name="uni048F" horiz-adv-x="571" unicode="ҏ"/>
<glyph d="M381 840h104v-240h-311v-600h-104v700h311v140z" glyph-name="uni0490" horiz-adv-x="495" unicode="Ґ"/>
<glyph d="M291 561h86v-191h-219v-370h-98v462h231v99z" glyph-name="uni0491" horiz-adv-x="382" unicode="ґ"/>
<glyph d="M492 602h-291v-200h196v-92h-196v-310h-104v310h-87v92h87v298h395v-98z" glyph-name="uni0492" horiz-adv-x="502" unicode="Ғ"/>
<glyph d="M390 370h-202v-100h145v-92h-145v-178h-98v178h-75v92h75v192h300v-92z" glyph-name="uni0493" horiz-adv-x="395" unicode="ғ"/>
<glyph d="M365 405q180 0 204 -130q4 -23 4 -48v-238q0 -126 -87 -170q-37 -19 -85 -19h-73v98h65q75 2 76 95v232q-2 81 -115 82q-83 0 -180 -8v-299h-104v700h395v-98h-291v-206q129 9 191 9z" glyph-name="uni0494" horiz-adv-x="593" unicode="Ҕ"/>
<glyph d="M291 252q137 0 160 -96q5 -23 5 -50v-144q0 -138 -119 -158q-23 -4 -50 -4h-61v92h54q70 0 77 57q1 8 1 16v130q-2 72 -82 73q-33 0 -118 -5v-163h-98v462h340v-92h-242v-123q70 5 133 5z" glyph-name="uni0495" horiz-adv-x="486" unicode="ҕ"/>
<glyph d="M929 70h61v-210h-96v140h-52l-294 357v-357h-102v357l-294 -357h-147l320 373l-266 327h143l244 -321v321h102v-321l244 321h143l-266 -327z" glyph-name="uni0496" horiz-adv-x="1005" unicode="Җ"/>
<glyph d="M680 61h62v-191h-86v130h-54l-186 232v-232h-96v232l-186 -232h-129l207 250l-187 212h130l165 -202v202h96v-202l165 202h130l-187 -212z" glyph-name="uni0497" horiz-adv-x="757" unicode="җ"/>
<glyph d="M538 191q0 -122 -107 -175q-48 -23 -113 -29l-8 -23q67 -23 69 -71q0 -42 -66 -76q-18 -9 -64 -29l-13 28q69 34 79 49q3 6 3 11q0 23 -36 34q-10 3 -28 7l25 68h-6q-134 0 -248 65l48 96q103 -61 206 -61q123 0 147 76q5 17 5 35q-2 120 -202 121h-69v100h68 q144 0 171 75q6 16 6 33q0 79 -101 89q-14 1 -27 1q-95 0 -196 -58l-47 91q119 67 257 67q162 0 207 -101q15 -33 15 -73q0 -120 -118 -160q-13 -4 -27 -7v-2q115 -15 154 -101q16 -36 16 -80z" glyph-name="uni0498" horiz-adv-x="578" unicode="Ҙ"/>
<glyph d="M424 129q0 -112 -136 -138q-29 -5 -63 -6l-7 -21q67 -23 69 -71q0 -42 -66 -76q-18 -9 -64 -29l-13 28q69 34 79 49q3 6 3 11q0 23 -36 34q-10 3 -28 7l25 69q-98 4 -167 43l41 84q71 -38 153 -38q111 1 112 63q-5 61 -97 62h-96v85h89q84 1 85 50q-2 51 -90 52 q-69 0 -151 -32l-33 88q93 34 190 34q148 0 179 -80q7 -19 7 -39q0 -69 -65 -97q-20 -9 -42 -12v-3q107 -9 120 -94q2 -12 2 -23z" glyph-name="uni0499" horiz-adv-x="454" unicode="ҙ"/>
<glyph d="M644 0h-2v-140h-96v140h-56l-316 349v-349h-104v700h104v-311l278 311h144l-304 -321l287 -309h63v-68z" glyph-name="uni049A" horiz-adv-x="659" unicode="Қ"/>
<glyph d="M421 61h62v-191h-86v130h-53l-186 227v-227h-98v462h98v-197l165 197h129l-194 -210z" glyph-name="uni049B" horiz-adv-x="498" unicode="қ"/>
<glyph d="M575 0l-273 326h-35v-126h-40v126h-53v-326h-104v700h104v-278h53v153h40v-153h40l214 278h135l-261 -321l329 -379h-149z" glyph-name="uni049C" horiz-adv-x="729" unicode="Ҝ"/>
<glyph d="M384 0l-151 215h-15v-117h-28v117h-32v-215h-98v462h98v-179h32v114h28v-114h16l139 179h124l-179 -210l190 -252h-124z" glyph-name="uni049D" horiz-adv-x="513" unicode="ҝ"/>
<glyph d="M690 0h-154l-316 349v-349h-104v559h-106v64h106v77h104v-77h116v-64h-116v-170l278 311h144l-304 -321z" glyph-name="uni049E" horiz-adv-x="695" unicode="Ҟ"/>
<glyph d="M478 0h-129l-186 227v-227h-98v565h-65v60h65v75h98v-75h140v-60h-140v-300l165 197h129l-194 -210z" glyph-name="uni049F" horiz-adv-x="483" unicode="ҟ"/>
<glyph d="M773 0h-154l-316 349v-349h-104v602h-189v98h273h20v-311l278 311h144l-304 -321z" glyph-name="uni04A0" horiz-adv-x="778" unicode="Ҡ"/>
<glyph d="M578 0h-129l-186 227v-227h-98v370h-160v92h212h46v-197l165 197h129l-194 -210z" glyph-name="uni04A1" horiz-adv-x="583" unicode="ҡ"/>
<glyph d="M648 70h35v-210h-96v140h-43v319h-370v-319h-104v700h104v-281h370v281h104v-630z" glyph-name="uni04A2" horiz-adv-x="698" unicode="Ң"/>
<glyph d="M491 61h55v-191h-86v130h-67v194h-235v-194h-98v462h98v-176h235v176h98v-401z" glyph-name="uni04A3" horiz-adv-x="561" unicode="ң"/>
<glyph d="M934 700v-98h-306v-602h-104v319h-350v-319h-104v700h104v-281h350v281h410z" glyph-name="uni04A4" horiz-adv-x="944" unicode="Ҥ"/>
<glyph d="M663 462v-92h-192v-370h-98v194h-215v-194h-98v462h98v-176h215v176h290z" glyph-name="uni04A5" horiz-adv-x="668" unicode="ҥ"/>
<glyph d="M819 425q180 0 204 -130q4 -23 4 -48v-59q0 -133 -101 -173q-37 -15 -85 -15h-69v98h58q76 0 89 59q4 16 4 35v53q-2 81 -115 82q-73 0 -170 -7v-320h-104v602h-360v-602h-104v700h568v-283q109 8 181 8z" glyph-name="uni04A6" horiz-adv-x="1047" unicode="Ҧ"/>
<glyph d="M602 282q127 0 155 -79q10 -29 10 -67v-170q0 -144 -109 -163q-19 -3 -40 -3h-61v92h54q50 0 57 56q1 10 1 21v156q0 64 -60 72q-11 1 -22 1q-32 0 -116 -5v-193h-98v370h-215v-370h-98v462h98h291h22v-185q69 5 131 5z" glyph-name="uni04A7" horiz-adv-x="797" unicode="ҧ"/>
<glyph d="M786 21q-81 -36 -147 -36q-75 0 -122 28q-51 -28 -136 -28q-176 0 -268 127q-68 95 -68 236q0 198 132 297q95 70 236 70q59 0 111 -14l-29 -102q-43 10 -82 10q-134 0 -204 -94q-50 -70 -50 -173q0 -141 83 -215q62 -54 153 -54q13 0 34 2q-96 85 -97 228q0 142 94 199 q46 28 104 28q109 0 159 -88q30 -53 30 -127q0 -135 -85 -221q-11 -10 -21 -19q14 -2 23 -2q51 0 110 32zM438 299q1 -126 88 -190q87 58 94 175q1 10 1 19q0 112 -78 122q-7 1 -13 1q-78 0 -90 -95q-2 -15 -2 -32z" glyph-name="uni04A8" horiz-adv-x="796" unicode="Ҩ"/>
<glyph d="M537 80l30 -71q-53 -24 -103 -24q-55 0 -91 22q-38 -22 -100 -22q-142 0 -205 101q-38 61 -38 147q0 170 139 223q54 21 124 21q46 0 86 -9l-21 -89q-34 7 -63 7q-126 0 -154 -98q-7 -25 -7 -55q0 -105 71 -146q26 -15 58 -19q-42 50 -42 122q0 100 81 136q33 15 73 15 q111 0 139 -88q8 -27 8 -58q-1 -78 -55 -135q36 3 70 20zM374 259q-47 0 -58 -52q-2 -12 -2 -25q1 -66 49 -98q68 38 72 102q0 55 -40 69q-10 4 -21 4z" glyph-name="uni04A9" horiz-adv-x="572" unicode="ҩ"/>
<glyph d="M657 62q-103 -74 -238 -77l-7 -21q67 -23 69 -71q0 -42 -66 -76q-18 -9 -64 -29l-13 28q69 34 79 49q3 6 3 11q0 23 -36 34q-10 3 -28 7l25 69q-170 10 -266 126q-80 97 -80 238q0 173 116 275q103 90 259 90q140 -1 247 -77l-64 -91q-85 62 -187 62q-127 0 -199 -87 q-58 -70 -58 -172q0 -134 94 -207q69 -52 163 -52q102 0 187 62z" glyph-name="uni04AA" horiz-adv-x="682" unicode="Ҫ"/>
<glyph d="M284 -15h-4l-7 -21q67 -23 69 -71q0 -42 -66 -76q-18 -9 -64 -29l-13 28q69 34 79 49q3 6 3 11q0 23 -36 34q-10 3 -28 7l25 71q-119 15 -176 108q-36 60 -36 135q0 126 91 195q68 51 163 51q87 -1 158 -47l-46 -83q-57 35 -115 35q-86 0 -126 -68q-21 -37 -21 -83 q0 -86 63 -128q37 -23 84 -23q59 1 115 35l46 -83q-72 -47 -158 -47z" glyph-name="uni04AB" horiz-adv-x="462" unicode="ҫ"/>
<glyph d="M508 602h-197v-532h68v-210h-96v140h-76v602h-197v98h498v-98z" glyph-name="uni04AC" horiz-adv-x="518" unicode="Ҭ"/>
<glyph d="M424 372h-161v-311h56v-191h-86v130h-68v372h-160v90h419v-90z" glyph-name="uni04AD" horiz-adv-x="429" unicode="ҭ"/>
<glyph d="M543 700l-219 -419v-281h-105v280l-219 420h121l149 -309h3l149 309h121z" glyph-name="uni04AE" horiz-adv-x="543" unicode="Ү"/>
<glyph d="M467 462l-182 -457v-205h-98v205l-182 457h110l121 -344l121 344h110z" glyph-name="uni04AF" horiz-adv-x="472" unicode="ү"/>
<glyph d="M543 700l-213 -407h119v-86h-125v-207h-105v206h-125v86h118l-212 408h121l149 -309h3l149 309h121z" glyph-name="uni04B0" horiz-adv-x="543" unicode="Ұ"/>
<glyph d="M285 5h124v-85h-124v-120h-98v120h-124v85h124l-182 457h110l121 -344l121 344h110z" glyph-name="uni04B1" horiz-adv-x="472" unicode="ұ"/>
<glyph d="M566 70h74v-210h-96v140h-57l-177 287l-176 -287h-124l235 373l-204 327h124l145 -239l146 239h123l-204 -327z" glyph-name="uni04B2" horiz-adv-x="655" unicode="Ҳ"/>
<glyph d="M443 61h60v-191h-86v130h-53l-117 166l-117 -166h-125l183 243l-157 219h126l90 -144l90 144h126l-157 -219z" glyph-name="uni04B3" horiz-adv-x="494" unicode="ҳ"/>
<glyph d="M727 98h70v-238h-96v140h-496v602h-195v98h299h167v-98h-167v-504h314v602h104v-602z" glyph-name="uni04B4" horiz-adv-x="827" unicode="Ҵ"/>
<glyph d="M554 92h55v-222h-86v130h-267h-98v370h-153v92h251h131v-92h-131v-278h200v370h98v-370z" glyph-name="uni04B5" horiz-adv-x="624" unicode="ҵ"/>
<glyph d="M513 70h68v-210h-96v140h-76v285h-196q-192 2 -193 188v227h104v-225q0 -73 60 -88q20 -4 45 -4h180v317h104v-630z" glyph-name="uni04B6" horiz-adv-x="596" unicode="Ҷ"/>
<glyph d="M398 61h55v-191h-86v130h-67v175h-140q-144 2 -145 131v156h98v-145q0 -50 46 -54h10h131v199h98v-401z" glyph-name="uni04B7" horiz-adv-x="468" unicode="ҷ"/>
<glyph d="M409 700h104v-700h-104v285h-106v-142h-50v142h-40q-192 2 -193 188v227h104v-225q0 -73 60 -88q20 -4 45 -4h24v135h50v-135h106v317z" glyph-name="uni04B8" horiz-adv-x="583" unicode="Ҹ"/>
<glyph d="M300 462h98v-462h-98v175h-54v-86h-30v86h-56q-144 2 -145 131v156h98v-145q0 -50 46 -54h10h47v95h30v-95h54v199z" glyph-name="uni04B9" horiz-adv-x="458" unicode="ҹ"/>
<glyph d="M370 415q192 -2 193 -188v-227h-104v225q0 73 -60 88q-20 4 -45 4h-180v-317h-104v700h104v-285h196z" glyph-name="uni04BA" horiz-adv-x="583" unicode="Һ"/>
<glyph d="M163 700v-308h2q49 84 151 85q131 0 164 -115q10 -35 10 -78v-284h-98v267q-2 111 -106 112q-122 -2 -123 -158v-221h-98v700h98z" glyph-name="uni04BB" horiz-adv-x="545" unicode="һ"/>
<glyph d="M548 715q184 0 276 -131q67 -95 67 -234v-45h-112h-477q19 -126 123 -183q62 -33 142 -33q109 0 212 73q4 3 7 5l58 -90q-134 -92 -276 -92q-176 0 -283 109q-81 85 -96 210h-32q-99 0 -130 76q-12 29 -12 66q0 30 10 71h104q-10 -35 -10 -57q2 -56 58 -57h12 q17 158 135 244q94 68 224 68zM548 611q-141 0 -208 -102q-30 -46 -39 -106h475q-20 156 -144 196q-38 12 -84 12z" glyph-name="uni04BC" horiz-adv-x="926" unicode="Ҽ"/>
<glyph d="M584 231v-16h-358q4 -83 69 -119q32 -17 71 -17q82 1 142 81l69 -65q-81 -109 -209 -110q-133 0 -199 96q-38 57 -42 134h-5q-116 2 -117 101q0 27 9 55h76q-8 -26 -8 -45q0 -35 33 -39q6 -1 12 -1h5q21 115 115 164q52 27 116 27q135 0 191 -108q30 -59 30 -138z M231 286h247q-5 73 -73 94q-23 7 -48 7q-91 0 -119 -76q-5 -12 -7 -25z" glyph-name="uni04BD" horiz-adv-x="614" unicode="ҽ"/>
<glyph d="M548 715q184 0 276 -131q67 -95 67 -234v-45h-112h-477q19 -126 123 -183q62 -33 142 -33q109 0 212 73q4 3 7 5l58 -90q-68 -46 -126 -66l2 -1q-69 -70 -70 -108q2 -22 29 -23q12 0 39 6l12 -62q-33 -10 -70 -10q-63 0 -80 47q-5 13 -5 28q1 53 58 101q-42 -4 -65 -4 q-176 0 -283 109q-81 85 -96 210h-32q-99 0 -130 76q-12 29 -12 66q0 30 10 71h104q-10 -35 -10 -57q2 -56 58 -57h12q17 158 135 244q94 68 224 68zM548 611q-141 0 -208 -102q-30 -46 -39 -106h475q-20 156 -144 196q-38 12 -84 12z" glyph-name="uni04BE" horiz-adv-x="926" unicode="Ҿ"/>
<glyph d="M584 231v-16h-358q4 -83 69 -119q32 -17 71 -17q82 1 142 81l69 -65q-44 -61 -103 -88q-66 -68 -67 -105q2 -22 29 -23q12 0 39 6l12 -62q-33 -10 -70 -10q-63 0 -80 47q-5 13 -5 28q1 50 53 97h-17q-133 0 -199 96q-38 57 -42 134h-5q-116 2 -117 101q0 27 9 55h76 q-8 -26 -8 -45q0 -35 33 -39q6 -1 12 -1h5q21 115 115 164q52 27 116 27q135 0 191 -108q30 -59 30 -138zM231 286h247q-5 73 -73 94q-23 7 -48 7q-91 0 -119 -76q-5 -12 -7 -25z" glyph-name="uni04BF" horiz-adv-x="614" unicode="ҿ"/>
<glyph d="M176 700v-700h-106v700h106z" glyph-name="uni04C0" horiz-adv-x="246" unicode="Ӏ"/>
<glyph d="M496 723q-95 0 -125 80q-10 27 -11 60h67q2 -80 69 -82q68 0 69 76v6h67q-2 -100 -78 -130q-27 -10 -58 -10zM989 0h-147l-294 357v-357h-102v357l-294 -357h-147l320 373l-266 327h143l244 -321v321h102v-321l244 321h143l-266 -327z" glyph-name="uni04C1" horiz-adv-x="994" unicode="Ӂ"/>
<glyph d="M368 500q-85 0 -119 66q-17 33 -17 74h68q3 -58 48 -70q10 -3 20 -3q50 0 64 49q3 12 4 24h68q0 -92 -70 -126q-30 -14 -66 -14zM731 0h-129l-186 232v-232h-96v232l-186 -232h-129l207 250l-187 212h130l165 -202v202h96v-202l165 202h130l-187 -212z" glyph-name="uni04C2" horiz-adv-x="736" unicode="ӂ"/>
<glyph d="M388 383q152 0 186 -97q12 -34 12 -79v-218q0 -126 -87 -170q-37 -19 -85 -19h-73v98h65q75 2 76 95v200q-6 90 -115 92q-73 0 -193 -9v-276h-104v700h104v-330l267 330h140l-282 -321q58 4 89 4z" glyph-name="uni04C3" horiz-adv-x="606" unicode="Ӄ"/>
<glyph d="M291 259q141 0 161 -102q4 -19 4 -41v-154q0 -138 -119 -158q-23 -4 -50 -4h-61v92h54q70 0 77 57q1 8 1 16v140q-2 73 -82 74q-33 0 -118 -5v-174h-98v462h98v-197l165 197h129l-190 -203h29z" glyph-name="uni04C4" horiz-adv-x="471" unicode="ӄ"/>
<glyph d="M628 66h75l-92 -196h-94l56 130h-49v602h-310v-430q-2 -176 -153 -177h-46v101h36q46 0 55 39q4 16 4 37v528h518v-634z" glyph-name="uni04C5" horiz-adv-x="708" unicode="Ӆ"/>
<glyph d="M469 66h94l-92 -196h-94l56 130h-62v370h-190v-243q0 -103 -79 -128q-21 -6 -44 -6h-48v89h32q38 9 41 46v334h98h288v-396z" glyph-name="uni04C6" horiz-adv-x="553" unicode="ӆ"/>
<glyph d="M544 700h104v-744q0 -132 -105 -152q-19 -4 -39 -4h-71v98h50q48 0 58 34q3 12 3 28v359h-370v-319h-104v700h104v-281h370v281z" glyph-name="uni04C7" horiz-adv-x="718" unicode="Ӈ"/>
<glyph d="M393 462h98v-524q0 -126 -108 -137q-10 -1 -20 -1h-61v92h43q46 4 48 49v253h-235v-194h-98v462h98v-176h235v176z" glyph-name="uni04C8" horiz-adv-x="551" unicode="ӈ"/>
<glyph d="M648 66h80l-92 -196h-94l56 130h-54v319h-370v-319h-104v700h104v-281h370v281h104v-634z" glyph-name="uni04C9" horiz-adv-x="733" unicode="Ӊ"/>
<glyph d="M491 66h89l-92 -196h-94l56 130h-57v194h-235v-194h-98v462h98v-176h235v176h98v-396z" glyph-name="uni04CA" horiz-adv-x="570" unicode="ӊ"/>
<glyph d="M513 700v-700h-80v-140h-96v210h72v215h-196q-192 2 -193 188v227h104v-225q0 -73 60 -88q20 -4 45 -4h180v317h104z" glyph-name="uni04CB" horiz-adv-x="583" unicode="Ӌ"/>
<glyph d="M398 462v-462h-67v-130h-86v191h55v114h-140q-144 2 -145 131v156h98v-145q0 -50 46 -54h10h131v199h98z" glyph-name="uni04CC" horiz-adv-x="458" unicode="ӌ"/>
<glyph d="M839 66h85l-92 -196h-94l56 130h-50l-116 500h-2l-157 -393h-78l-157 393h-2l-116 -500h-111l170 700h85l169 -430h2l169 430h85z" glyph-name="uni04CD" horiz-adv-x="929" unicode="Ӎ"/>
<glyph d="M632 66h91l-92 -196h-94l56 130h-42l-80 317h-2l-102 -244h-69l-102 244h-2l-80 -317h-99l127 462h89l100 -246h2l101 246h89z" glyph-name="uni04CE" horiz-adv-x="713" unicode="ӎ"/>
<glyph d="M65 0v462h98v-462h-98z" glyph-name="uni04CF" horiz-adv-x="228" unicode="ӏ"/>
<glyph d="M339 723q-95 0 -125 80q-10 27 -11 60h67q2 -80 69 -82q68 0 69 76v6h67q-2 -100 -78 -130q-27 -10 -58 -10zM559 0l-67 174h-306l-67 -174h-114l286 700h96l286 -700h-114zM223 270h232l-116 300z" glyph-name="uni04D0" horiz-adv-x="678" unicode="Ӑ"/>
<glyph d="M417 640q0 -92 -70 -126q-30 -14 -66 -14q-85 0 -119 66q-17 33 -17 74h68q3 -58 48 -70q10 -3 20 -3q50 0 64 49q3 12 4 24h68zM255 -15q-106 0 -171 79q-54 68 -54 167q0 132 89 201q59 45 136 45q108 -1 156 -83h2v68h98v-462h-98v68h-2q-49 -82 -156 -83zM276 81 q84 0 122 68q20 36 20 82q0 89 -64 129q-35 21 -78 21q-84 0 -122 -68q-20 -36 -20 -82q0 -89 64 -129q35 -21 78 -21z" glyph-name="uni04D1" horiz-adv-x="571" unicode="ӑ"/>
<glyph d="M287 847v-104h-106v104h106zM497 847v-104h-106v104h106zM559 0l-67 174h-306l-67 -174h-114l286 700h96l286 -700h-114zM223 270h232l-116 300z" glyph-name="uni04D2" horiz-adv-x="678" unicode="Ӓ"/>
<glyph d="M247 640v-120h-95v120h95zM410 640v-120h-95v120h95zM255 -15q-106 0 -171 79q-54 68 -54 167q0 132 89 201q59 45 136 45q108 -1 156 -83h2v68h98v-462h-98v68h-2q-49 -82 -156 -83zM276 81q84 0 122 68q20 36 20 82q0 89 -64 129q-35 21 -78 21q-84 0 -122 -68 q-20 -36 -20 -82q0 -89 64 -129q35 -21 78 -21z" glyph-name="uni04D3" horiz-adv-x="571" unicode="ӓ"/>
<glyph d="M613 98h275v-98h-317h-60v174h-265l-110 -174h-131l455 700h153h270v-98h-270v-166h246v-98h-246v-240zM307 270h204v322z" glyph-name="uni04D4" horiz-adv-x="933" unicode="Ӕ"/>
<glyph d="M196 -15q-97 0 -151 63q-35 43 -35 100q0 88 75 133q46 27 108 27q95 -1 139 -56h2v40q-2 96 -107 97q-60 0 -152 -24l-21 87q95 25 180 25q122 -1 157 -89h2q40 68 129 85q23 4 47 4q125 0 182 -101q33 -61 33 -145v-16h-354q5 -92 74 -123q28 -13 63 -13q78 0 132 68 q4 5 10 13l67 -63q-77 -111 -205 -112q-107 0 -168 71q-14 17 -23 35h-2q-34 -78 -128 -100q-27 -6 -54 -6zM435 286h242q-2 64 -60 90q-27 11 -58 11q-85 0 -115 -71q-6 -15 -9 -30zM217 69q75 0 105 43q12 17 12 37q0 49 -59 68q-26 9 -57 9q-82 0 -100 -54q-4 -12 -4 -24 q0 -54 56 -72q22 -7 47 -7z" glyph-name="uni04D5" horiz-adv-x="814" unicode="ӕ"/>
<glyph d="M290 723q-95 0 -125 80q-10 27 -11 60h67q2 -80 69 -82q68 0 69 76v6h67q-2 -100 -78 -130q-27 -10 -58 -10zM174 98h301v-98h-405v700h400v-98h-296v-166h273v-98h-273v-240z" glyph-name="uni04D6" horiz-adv-x="520" unicode="Ӗ"/>
<glyph d="M406 640q0 -92 -70 -126q-30 -14 -66 -14q-85 0 -119 66q-17 33 -17 74h68q3 -58 48 -70q10 -3 20 -3q50 0 64 49q3 12 4 24h68zM266 477q135 0 191 -108q30 -59 30 -138v-16h-358q4 -83 69 -119q32 -17 71 -17q82 1 142 81l69 -65q-81 -109 -209 -110q-132 0 -198 94 q-43 63 -43 151q0 126 83 196q63 51 153 51zM260 387q-91 0 -119 -76q-5 -12 -7 -25h247q-5 73 -73 94q-23 7 -48 7z" glyph-name="uni04D7" horiz-adv-x="517" unicode="ӗ"/>
<glyph d="M364 715q197 0 298 -125q78 -96 78 -244q0 -185 -116 -284q-92 -77 -235 -77q-192 0 -287 132q-67 95 -67 233v45h112h479q-19 137 -132 190q-58 26 -131 26q-127 0 -223 -65l-55 95q135 74 279 74zM389 89q162 0 217 127q16 36 21 79h-477q21 -156 153 -195 q39 -11 86 -11z" glyph-name="uni04D8" horiz-adv-x="775" unicode="Ә"/>
<glyph d="M251 -15q-135 0 -191 108q-30 59 -30 138v16h358q-4 83 -69 119q-32 17 -71 17q-82 -1 -142 -81l-69 65q81 109 209 110q132 0 198 -94q43 -63 43 -151q0 -126 -83 -196q-63 -51 -153 -51zM257 75q91 0 119 76q5 12 7 25h-247q5 -73 73 -94q23 -7 48 -7z" glyph-name="uni04D9" horiz-adv-x="517" unicode="ә"/>
<glyph d="M336 847v-104h-106v104h106zM546 847v-104h-106v104h106zM364 715q197 0 298 -125q78 -96 78 -244q0 -185 -116 -284q-92 -77 -235 -77q-192 0 -287 132q-67 95 -67 233v45h112h479q-19 137 -132 190q-58 26 -131 26q-127 0 -223 -65l-55 95q135 74 279 74zM389 89 q162 0 217 127q16 36 21 79h-477q21 -156 153 -195q39 -11 86 -11z" glyph-name="uni04DA" horiz-adv-x="775" unicode="Ӛ"/>
<glyph d="M227 640v-120h-95v120h95zM390 640v-120h-95v120h95zM251 -15q-135 0 -191 108q-30 59 -30 138v16h358q-4 83 -69 119q-32 17 -71 17q-82 -1 -142 -81l-69 65q81 109 209 110q132 0 198 -94q43 -63 43 -151q0 -126 -83 -196q-63 -51 -153 -51zM257 75q91 0 119 76 q5 12 7 25h-247q5 -73 73 -94q23 -7 48 -7z" glyph-name="uni04DB" horiz-adv-x="517" unicode="ӛ"/>
<glyph d="M444 847v-104h-106v104h106zM654 847v-104h-106v104h106zM989 0h-147l-294 357v-357h-102v357l-294 -357h-147l320 373l-266 327h143l244 -321v321h102v-321l244 321h143l-266 -327z" glyph-name="uni04DC" horiz-adv-x="994" unicode="Ӝ"/>
<glyph d="M334 640v-120h-95v120h95zM497 640v-120h-95v120h95zM731 0h-129l-186 232v-232h-96v232l-186 -232h-129l207 250l-187 212h130l165 -202v202h96v-202l165 202h130l-187 -212z" glyph-name="uni04DD" horiz-adv-x="736" unicode="ӝ"/>
<glyph d="M241 847v-104h-106v104h106zM451 847v-104h-106v104h106zM291 715q162 0 207 -101q15 -33 15 -73q0 -120 -118 -160q-13 -4 -27 -7v-2q115 -15 154 -101q16 -36 16 -80q0 -124 -108 -176q-64 -30 -157 -30q-134 0 -248 65l48 96q103 -61 206 -61q123 0 147 76q5 17 5 35 q-2 120 -202 121h-69v100h68q144 0 171 75q6 16 6 33q0 79 -101 89q-14 1 -27 1q-95 0 -196 -58l-47 91q119 67 257 67z" glyph-name="uni04DE" horiz-adv-x="578" unicode="Ӟ"/>
<glyph d="M175 640v-120h-95v120h95zM338 640v-120h-95v120h95zM211 -15q-114 0 -191 44l41 84q71 -38 153 -38q111 1 112 63q-5 61 -97 62h-96v85h89q84 1 85 50q-2 51 -90 52q-69 0 -151 -32l-33 88q93 34 190 34q148 0 179 -80q7 -19 7 -39q0 -69 -65 -97q-20 -9 -42 -12v-3 q107 -9 120 -94q2 -12 2 -23q0 -113 -136 -138q-35 -6 -77 -6z" glyph-name="uni04DF" horiz-adv-x="454" unicode="ӟ"/>
<glyph d="M254 -15q-141 0 -244 64l50 97q93 -55 191 -55q129 0 143 95q1 11 1 21q0 92 -110 111q-35 6 -79 6h-74v86l205 192h-283v98h430v-98l-230 -200q26 9 52 9q101 0 158 -71q43 -55 43 -135q0 -136 -107 -190q-60 -30 -146 -30z" glyph-name="uni04E0" horiz-adv-x="547" unicode="Ӡ"/>
<glyph d="M194 -215q-116 0 -209 48l42 92q85 -46 172 -46q101 0 131 71q10 23 10 51q-2 110 -158 111h-84v80l191 178h-261v92h385v-98l-198 -175q28 4 46 4q92 0 144 -69q39 -51 39 -124q0 -146 -126 -195q-53 -20 -124 -20z" glyph-name="uni04E1" horiz-adv-x="469" unicode="ӡ"/>
<glyph d="M493 833v-72h-290v72h290zM70 700h104v-528h2l344 528h109v-700h-104v528h-2l-344 -528h-109v700z" glyph-name="uni04E2" horiz-adv-x="699" unicode="Ӣ"/>
<glyph d="M415 602v-72h-290v72h290zM60 0v462h98v-307h2l229 307h91v-462h-98v307h-2l-229 -307h-91z" glyph-name="uni04E3" horiz-adv-x="540" unicode="ӣ"/>
<glyph d="M297 847v-104h-106v104h106zM507 847v-104h-106v104h106zM70 700h104v-528h2l344 528h109v-700h-104v528h-2l-344 -528h-109v700z" glyph-name="uni04E4" horiz-adv-x="699" unicode="Ӥ"/>
<glyph d="M236 640v-120h-95v120h95zM399 640v-120h-95v120h95zM60 0v462h98v-307h2l229 307h91v-462h-98v307h-2l-229 -307h-91z" glyph-name="uni04E5" horiz-adv-x="540" unicode="ӥ"/>
<glyph d="M349 847v-104h-106v104h106zM559 847v-104h-106v104h106zM400 715q160 0 263 -105q102 -103 102 -260q0 -164 -109 -268q-104 -97 -256 -97q-160 0 -263 105q-102 103 -102 260q0 164 109 268q104 97 256 97zM400 609q-125 0 -196 -91q-55 -70 -55 -168q0 -128 87 -201 q68 -58 164 -58q125 0 196 91q55 70 55 168q0 128 -87 201q-68 58 -164 58z" glyph-name="uni04E6" horiz-adv-x="800" unicode="Ӧ"/>
<glyph d="M249 640v-120h-95v120h95zM412 640v-120h-95v120h95zM283 477q121 0 194 -83q59 -68 59 -163q0 -118 -86 -189q-70 -57 -167 -57q-121 0 -194 83q-59 68 -59 163q0 118 86 189q70 57 167 57zM283 381q-88 0 -128 -67q-21 -36 -21 -83q0 -90 69 -130q35 -20 80 -20 q88 0 128 67q21 36 21 83q0 90 -69 130q-35 20 -80 20z" glyph-name="uni04E7" horiz-adv-x="566" unicode="ӧ"/>
<glyph d="M400 715q160 0 263 -105q102 -103 102 -260q0 -164 -109 -268q-104 -97 -256 -97q-160 0 -263 105q-102 103 -102 260q0 164 109 268q104 97 256 97zM400 609q-126 0 -199 -89q-47 -59 -55 -138h508q-12 118 -103 182q-65 45 -151 45zM400 91q126 0 199 89q47 59 55 138 h-508q12 -118 103 -182q65 -45 151 -45z" glyph-name="uni04E8" horiz-adv-x="800" unicode="Ө"/>
<glyph d="M283 477q121 0 194 -83q59 -68 59 -163q0 -118 -86 -189q-70 -57 -167 -57q-121 0 -194 83q-59 68 -59 163q0 118 86 189q70 57 167 57zM283 386q-90 0 -132 -68q-15 -26 -20 -57h304q-13 83 -86 113q-31 12 -66 12zM283 76q90 0 132 68q15 26 20 57h-304q13 -83 86 -113 q31 -12 66 -12z" glyph-name="uni04E9" horiz-adv-x="566" unicode="ө"/>
<glyph d="M349 847v-104h-106v104h106zM559 847v-104h-106v104h106zM400 715q160 0 263 -105q102 -103 102 -260q0 -164 -109 -268q-104 -97 -256 -97q-160 0 -263 105q-102 103 -102 260q0 164 109 268q104 97 256 97zM400 609q-126 0 -199 -89q-47 -59 -55 -138h508 q-12 118 -103 182q-65 45 -151 45zM400 91q126 0 199 89q47 59 55 138h-508q12 -118 103 -182q65 -45 151 -45z" glyph-name="uni04EA" horiz-adv-x="800" unicode="Ӫ"/>
<glyph d="M242 640v-120h-95v120h95zM405 640v-120h-95v120h95zM283 477q121 0 194 -83q59 -68 59 -163q0 -118 -86 -189q-70 -57 -167 -57q-121 0 -194 83q-59 68 -59 163q0 118 86 189q70 57 167 57zM283 386q-90 0 -132 -68q-15 -26 -20 -57h304q-13 83 -86 113q-31 12 -66 12z M283 76q90 0 132 68q15 26 20 57h-304q13 -83 86 -113q31 -12 66 -12z" glyph-name="uni04EB" horiz-adv-x="566" unicode="ӫ"/>
<glyph d="M255 847v-104h-106v104h106zM465 847v-104h-106v104h106zM288 715q183 0 279 -121q76 -96 76 -244q0 -199 -129 -297q-92 -68 -226 -68q-144 1 -263 83l55 90q98 -69 209 -69q136 0 200 99q33 52 40 123h-312v98h310q-21 133 -130 181q-49 21 -108 21q-112 0 -209 -69 l-55 90q120 83 263 83z" glyph-name="uni04EC" horiz-adv-x="678" unicode="Ӭ"/>
<glyph d="M183 640v-120h-95v120h95zM346 640v-120h-95v120h95zM188 477q146 0 204 -108q31 -58 31 -138q0 -161 -114 -219q-52 -27 -121 -27q-89 1 -168 48l45 83q63 -35 122 -35q99 0 128 84q4 12 6 24h-172v84h172q-17 92 -106 106q-14 2 -28 2q-60 0 -122 -35l-45 83 q79 48 168 48z" glyph-name="uni04ED" horiz-adv-x="458" unicode="ӭ"/>
<glyph d="M449 833v-72h-290v72h290zM490 700h110l-322 -700h-110l85 184l-253 516h120l188 -395z" glyph-name="uni04EE" unicode="Ӯ"/>
<glyph d="M392 602v-72h-290v72h290zM372 462h108l-288 -662h-104l111 242l-194 420h117l127 -303z" glyph-name="uni04EF" horiz-adv-x="485" unicode="ӯ"/>
<glyph d="M253 847v-104h-106v104h106zM463 847v-104h-106v104h106zM490 700h110l-322 -700h-110l85 184l-253 516h120l188 -395z" glyph-name="uni04F0" unicode="Ӱ"/>
<glyph d="M213 640v-120h-95v120h95zM376 640v-120h-95v120h95zM372 462h108l-288 -662h-104l111 242l-194 420h117l127 -303z" glyph-name="uni04F1" horiz-adv-x="485" unicode="ӱ"/>
<glyph d="M386 863l-102 -120h-69l84 120h87zM405 743h-69l84 120h87zM490 700h110l-322 -700h-110l85 184l-253 516h120l188 -395z" glyph-name="uni04F2" unicode="Ӳ"/>
<glyph d="M343 657l-123 -154h-70l104 154h89zM348 503h-70l104 154h89zM372 462h108l-288 -662h-104l111 242l-194 420h117l127 -303z" glyph-name="uni04F3" horiz-adv-x="485" unicode="ӳ"/>
<glyph d="M215 847v-104h-106v104h106zM425 847v-104h-106v104h106zM409 700h104v-700h-104v285h-196q-192 2 -193 188v227h104v-225q0 -73 60 -88q20 -4 45 -4h180v317z" glyph-name="uni04F4" horiz-adv-x="583" unicode="Ӵ"/>
<glyph d="M168 640v-120h-95v120h95zM331 640v-120h-95v120h95zM300 462h98v-462h-98v175h-140q-144 2 -145 131v156h98v-145q0 -50 46 -54h10h131v199z" glyph-name="uni04F5" horiz-adv-x="458" unicode="ӵ"/>
<glyph d="M362 847v-104h-106v104h106zM466 743v104h106v-104h-106zM338 421q119 0 179 -79q41 -54 41 -132q0 -125 -97 -180q-54 -30 -123 -30h-268v700h104v-279h164zM639 700h106v-700h-106v700zM328 98q88 0 111 69q7 20 7 43q0 83 -70 106q-22 7 -48 7h-154v-225h154z" glyph-name="uni04F8" horiz-adv-x="815" unicode="Ӹ"/>
<glyph d="M291 640v-120h-95v120h95zM359 520v120h95v-120h-95zM278 296q109 0 149 -75q17 -32 17 -72q0 -81 -66 -123q-43 -26 -101 -26h-217v462h98v-166h120zM489 462h98v-462h-98v462zM268 87q70 3 72 60q-2 61 -72 62h-110v-122h110z" glyph-name="uni04F9" horiz-adv-x="647" unicode="ӹ"/>
<glyph d="M509 163q70 -110 79 -179q2 -17 2 -34q0 -110 -107 -140q-34 -10 -75 -10h-37v96h36q79 1 80 66q0 41 -42 110q-5 8 -37 59l-98 156l-176 -287h-124l235 373l-204 327h124l145 -239l146 239h123l-204 -326z" glyph-name="uni04FC" unicode="Ӽ"/>
<glyph d="M292 -200v92h43q46 4 48 49q-1 35 -45 95l-96 132l-121 -168h-116l181 243l-155 219h117l94 -146l94 146h117l-155 -219l128 -168q47 -62 53 -112q2 -16 2 -35q0 -98 -80 -122q-22 -6 -48 -6h-61z" glyph-name="uni04FD" horiz-adv-x="476" unicode="ӽ"/>
<glyph d="M287 715q139 0 257 -67l-47 -91q-102 58 -196 58q-115 0 -127 -74q-1 -8 -1 -16q0 -82 108 -102q32 -6 69 -6h68v-100h-69q-201 -1 -202 -121q0 -86 96 -106q26 -5 56 -5q104 1 206 61l48 -96q-115 -65 -248 -65q-190 0 -246 116q-19 41 -19 90q0 120 106 164 q30 12 64 17v2q-127 28 -143 138q-2 15 -2 29q0 118 112 158q48 16 110 16z" glyph-name="uni0510" horiz-adv-x="578" unicode="Ԑ"/>
<glyph d="M233 -15q-202 1 -203 139q0 88 82 114q19 6 41 8v3q-86 13 -104 80q-4 15 -4 31q0 80 86 106q36 11 80 11q104 0 200 -34l-33 -88q-82 32 -151 32q-79 -1 -80 -48q2 -54 107 -54h67v-85h-74q-99 0 -115 -40q-4 -11 -4 -24q2 -61 102 -61q83 0 153 38l41 -84 q-90 -44 -191 -44z" glyph-name="uni0511" horiz-adv-x="444" unicode="ԑ"/>
<glyph d="M110 700h518v-744q0 -132 -105 -152q-19 -4 -39 -4h-71v98h50q48 0 58 34q3 12 3 28v642h-310v-430q-2 -176 -153 -177h-46v101h36q46 0 55 39q4 16 4 37v528z" glyph-name="uni0512" horiz-adv-x="698" unicode="Ԓ"/>
<glyph d="M469 462v-524q0 -126 -108 -137q-10 -1 -20 -1h-61v92h43q46 4 48 49v429h-190v-243q0 -103 -79 -128q-21 -6 -44 -6h-48v89h32q38 9 41 46v334h386z" glyph-name="uni0513" horiz-adv-x="529" unicode="ԓ"/>
<glyph d="M970 700l-210 -700h-102l-164 524h-3l-164 -524h-102l-210 700h116l144 -534h2l164 534h103l164 -534h2l144 534h116z" glyph-name="uni051C" horiz-adv-x="985" unicode="Ԝ"/>
<glyph d="M608 462h108l-155 -462h-90l-110 331l-111 -331h-90l-155 462h108l93 -333l107 333h95l107 -333z" glyph-name="uni051D" horiz-adv-x="721" unicode="ԝ"/>
<glyph d="M638 70h68v-210h-96v140h-76v602h-360v-602h-104v700h568v-630z" glyph-name="uni0524" horiz-adv-x="721" unicode="Ԥ"/>
<glyph d="M471 61h55v-191h-86v130h-67v370h-215v-370h-98v462h98h291h22v-401z" glyph-name="uni0525" horiz-adv-x="541" unicode="ԥ"/>
<glyph d="M563 70h68v-210h-96v140h-76v225q0 73 -60 88q-20 4 -45 4h-180v-317h-104v700h104v-285h196q192 -2 193 -188v-157z" glyph-name="uni0526" horiz-adv-x="646" unicode="Ԧ"/>
<glyph d="M490 61h55v-191h-86v130h-67v267q-2 111 -106 112q-122 -2 -123 -158v-221h-98v700h98v-308h2q49 84 151 85q131 0 164 -115q10 -35 10 -78v-223z" glyph-name="uni0527" horiz-adv-x="560" unicode="ԧ"/>
</font>
</defs>
</svg>
